<svg width="454" height="371" viewBox="0 0 454 371" fill="none" xmlns="http://www.w3.org/2000/svg">
<g clip-path="url(#clip0)">
<path opacity="0.1" d="M236.17 371C315.894 371 380.522 367.18 380.522 362.467C380.522 357.754 315.894 353.934 236.17 353.934C156.447 353.934 91.818 357.754 91.818 362.467C91.818 367.18 156.447 371 236.17 371Z" fill="#6C63FF"/>
<path d="M317.937 329.012L316.695 331.001L309.019 343.475L302.501 345.622L297.639 340.424L297.875 336.994L299.087 319.182C299.087 319.182 269.003 299.851 266.313 296.235C263.623 292.619 253.277 289.342 253.277 289.342C253.277 289.342 237.449 281.32 231.552 267.309C225.655 253.298 241.38 251.151 241.38 251.151L300.453 312.854L317.937 329.012Z" fill="#FFC1C7"/>
<path d="M325.178 336.243L306.453 355.339C306.453 355.339 295.694 357.599 286.073 356.017C279.923 355.005 281.107 351.321 282.725 348.786L282.754 348.74C283.723 347.29 285.14 346.272 286.743 345.875C294.705 343.778 297.453 337.482 297.453 337.482L303.246 342.906L313.281 330.133L320.701 333.938L325.178 336.243Z" fill="#575988"/>
<path opacity="0.1" d="M320.701 333.947L316.294 331.688L316.708 331.001L317.949 329.012L300.453 312.854L241.38 251.16C241.38 251.16 225.655 253.298 231.552 267.309C237.449 281.32 253.277 289.343 253.277 289.343C253.277 289.343 263.623 292.619 266.313 296.235C269.003 299.851 299.108 319.173 299.108 319.173L297.895 336.985L297.837 337.834L297.453 337.477C297.453 337.477 294.705 343.773 286.743 345.87C285.14 346.268 283.723 347.286 282.754 348.736L282.725 348.781C281.07 351.312 279.923 354.996 286.073 356.013C295.694 357.595 306.453 355.335 306.453 355.335L325.178 336.239L320.701 333.947Z" fill="black"/>
<path opacity="0.1" d="M4.90375 194.338C12.0876 227.875 27.2955 256.864 51.3259 270.925C101.278 300.131 213.923 285.067 297.991 267.761C340.472 259.048 379.033 234.971 407.462 199.409L4.90375 194.338Z" fill="black"/>
<path opacity="0.1" d="M445.765 36.4831H399.637C398.602 36.4466 397.62 35.9719 396.899 35.1592C396.179 34.3465 395.776 33.2596 395.776 32.1283C395.776 30.9971 396.179 29.9102 396.899 29.0975C397.62 28.2848 398.602 27.81 399.637 27.7736H407.611C406.554 27.7736 405.54 27.315 404.793 26.4988C404.046 25.6825 403.626 24.5755 403.626 23.4211C403.626 22.2668 404.046 21.1597 404.793 20.3435C405.54 19.5272 406.554 19.0686 407.611 19.0686H401.917C400.882 19.0322 399.9 18.5575 399.179 17.7448C398.459 16.9321 398.056 15.8452 398.056 14.7139C398.056 13.5827 398.459 12.4958 399.179 11.6831C399.9 10.8704 400.882 10.3956 401.917 10.3592H425.993C420.65 7.64735 414.406 5.71744 407.21 4.70502C341.561 -4.50162 318.123 1.58643 309.855 7.86882C299.654 15.5975 288.274 21.2833 276.112 24.0222C235.607 33.1475 159.858 44.1259 91.2014 20.5059C57.078 8.75468 31.7192 28.6052 16.5155 61.7618H453.772C453.201 52.1258 451.492 43.231 448.356 35.439C447.634 36.1138 446.715 36.4842 445.765 36.4831Z" fill="black"/>
<path opacity="0.1" d="M0.988948 124.337C-0.782813 143.842 -0.181688 163.517 2.77664 182.849L407.772 199.025C419.048 184.862 428.514 169.096 435.912 152.156L0.988948 124.337ZM161.17 166.068H153.195C153.73 166.049 154.262 166.147 154.761 166.358C155.26 166.568 155.715 166.886 156.099 167.292C156.483 167.698 156.788 168.185 156.997 168.723C157.206 169.26 157.313 169.838 157.313 170.422C157.313 171.006 157.206 171.584 156.997 172.122C156.788 172.66 156.483 173.146 156.099 173.552C155.715 173.959 155.26 174.276 154.761 174.487C154.262 174.697 153.73 174.796 153.195 174.777H107.067C106.032 174.741 105.05 174.266 104.33 173.453C103.609 172.64 103.206 171.554 103.206 170.422C103.206 169.291 103.609 168.204 104.33 167.391C105.05 166.579 106.032 166.104 107.067 166.068H115.041C113.985 166.068 112.971 165.609 112.224 164.793C111.476 163.976 111.056 162.869 111.056 161.715C111.056 160.561 111.476 159.454 112.224 158.637C112.971 157.821 113.985 157.363 115.041 157.363H109.347C108.312 157.326 107.33 156.851 106.61 156.039C105.889 155.226 105.487 154.139 105.487 153.008C105.487 151.877 105.889 150.79 106.61 149.977C107.33 149.164 108.312 148.69 109.347 148.653H155.476C156.511 148.69 157.492 149.164 158.213 149.977C158.933 150.79 159.336 151.877 159.336 153.008C159.336 154.139 158.933 155.226 158.213 156.039C157.492 156.851 156.511 157.326 155.476 157.363H161.17C162.227 157.363 163.24 157.821 163.988 158.637C164.735 159.454 165.155 160.561 165.155 161.715C165.155 162.869 164.735 163.976 163.988 164.793C163.24 165.609 162.227 166.068 161.17 166.068Z" fill="black"/>
<path opacity="0.1" d="M453.793 62.051L11.6366 73.8023C6.25693 88.9026 2.71051 105.955 1.05524 123.668H446.046C448.951 113.274 451.1 102.645 452.473 91.8811C453.797 81.4812 454.327 71.4204 453.793 62.051ZM90.8207 100.532H82.8464C83.3808 100.513 83.9132 100.612 84.412 100.822C84.9108 101.032 85.3658 101.35 85.7499 101.756C86.134 102.163 86.4394 102.649 86.648 103.187C86.8566 103.725 86.9641 104.303 86.9641 104.887C86.9641 105.471 86.8566 106.049 86.648 106.586C86.4394 107.124 86.134 107.61 85.7499 108.017C85.3658 108.423 84.9108 108.741 84.412 108.951C83.9132 109.161 83.3808 109.26 82.8464 109.241H36.7181C35.6829 109.205 34.7012 108.73 33.9807 107.917C33.2602 107.105 32.8573 106.018 32.8573 104.887C32.8573 103.755 33.2602 102.668 33.9807 101.856C34.7012 101.043 35.6829 100.568 36.7181 100.532H44.6924C43.6355 100.532 42.6218 100.073 41.8745 99.257C41.1272 98.4407 40.7073 97.3337 40.7073 96.1793C40.7073 95.025 41.1272 93.9179 41.8745 93.1017C42.6218 92.2854 43.6355 91.8268 44.6924 91.8268H38.9982C37.963 91.7904 36.9813 91.3157 36.2608 90.503C35.5403 89.6903 35.1375 88.6034 35.1375 87.4721C35.1375 86.3409 35.5403 85.254 36.2608 84.4413C36.9813 83.6286 37.963 83.1538 38.9982 83.1174H85.1265C86.1618 83.1538 87.1434 83.6286 87.8639 84.4413C88.5844 85.254 88.9873 86.3409 88.9873 87.4721C88.9873 88.6034 88.5844 89.6903 87.8639 90.503C87.1434 91.3157 86.1618 91.7904 85.1265 91.8268H90.8207C91.8776 91.8268 92.8912 92.2854 93.6385 93.1017C94.3859 93.9179 94.8057 95.025 94.8057 96.1793C94.8057 97.3337 94.3859 98.4407 93.6385 99.257C92.8912 100.073 91.8776 100.532 90.8207 100.532Z" fill="black"/>
<g opacity="0.1">
<path opacity="0.1" d="M329.941 223.102C329.941 223.102 341.611 191.69 363.403 180.038C372.572 175.215 380.061 167.272 384.743 157.403C386.933 152.7 388.724 147.788 390.094 142.728" stroke="black" stroke-width="2" stroke-miterlimit="10"/>
<path opacity="0.1" d="M403.787 135.297C401.515 138.416 389.759 142.981 389.759 142.981C389.759 142.981 391.174 129.444 393.446 126.326C393.964 125.518 394.628 124.834 395.398 124.316C396.167 123.799 397.025 123.459 397.919 123.318C398.813 123.176 399.724 123.236 400.596 123.493C401.469 123.75 402.283 124.2 402.99 124.814C403.697 125.428 404.282 126.194 404.708 127.064C405.134 127.934 405.392 128.89 405.467 129.873C405.543 130.857 405.433 131.846 405.144 132.781C404.856 133.717 404.396 134.577 403.791 135.311L403.787 135.297Z" fill="black"/>
<path opacity="0.1" d="M399.753 159.998C396.293 161.268 384.16 158.108 384.16 158.108C384.16 158.108 392.085 147.586 395.544 146.316C396.382 145.941 397.282 145.758 398.187 145.778C399.092 145.797 399.985 146.02 400.808 146.431C401.632 146.842 402.369 147.434 402.975 148.169C403.581 148.904 404.043 149.767 404.331 150.705C404.62 151.642 404.729 152.635 404.652 153.62C404.576 154.606 404.315 155.564 403.885 156.435C403.456 157.306 402.868 158.071 402.157 158.684C401.446 159.297 400.628 159.744 399.753 159.998Z" fill="black"/>
<path opacity="0.1" d="M377.878 189.199C374.307 188.386 365.29 178.971 365.29 178.971C365.29 178.971 376.997 174.257 380.568 175.066C382.193 175.552 383.588 176.696 384.468 178.265C385.348 179.835 385.647 181.712 385.304 183.513C384.961 185.315 384.002 186.906 382.622 187.963C381.242 189.019 379.546 189.461 377.878 189.199Z" fill="black"/>
<path opacity="0.1" d="M356.773 207.219C353.128 207.084 342.782 199.464 342.782 199.464C342.782 199.464 353.591 192.657 357.237 192.797C358.143 192.766 359.045 192.939 359.888 193.304C360.73 193.67 361.495 194.22 362.135 194.921C362.774 195.623 363.275 196.46 363.607 197.382C363.938 198.303 364.093 199.289 364.061 200.279C364.029 201.268 363.811 202.24 363.422 203.134C363.032 204.028 362.479 204.825 361.795 205.475C361.112 206.126 360.314 206.617 359.45 206.917C358.586 207.217 357.675 207.32 356.773 207.219Z" fill="black"/>
<path opacity="0.1" d="M372.863 149.281C373.326 153.236 381.23 163.776 381.23 163.776C381.23 163.776 386.436 151.392 385.968 147.442C385.645 145.641 384.706 144.041 383.343 142.968C381.98 141.895 380.294 141.428 378.627 141.662C376.96 141.896 375.437 142.813 374.367 144.228C373.297 145.643 372.759 147.449 372.863 149.281Z" fill="black"/>
<path opacity="0.1" d="M348.423 170.7C349.95 174.316 360.382 181.796 360.382 181.796C360.382 181.796 361.95 168.282 360.423 164.662C359.621 163.05 358.287 161.832 356.693 161.254C355.098 160.676 353.362 160.781 351.836 161.549C350.311 162.317 349.109 163.689 348.475 165.388C347.841 167.088 347.822 168.986 348.423 170.7Z" fill="black"/>
<path opacity="0.1" d="M327.285 195.079C328.232 198.93 337.353 208.223 337.353 208.223C337.353 208.223 340.994 195.192 340.051 191.342C339.515 189.596 338.39 188.14 336.905 187.269C335.42 186.399 333.687 186.179 332.059 186.656C330.431 187.133 329.031 188.269 328.144 189.835C327.257 191.4 326.949 193.275 327.285 195.079Z" fill="black"/>
<path opacity="0.25" d="M403.787 135.297C401.515 138.416 389.759 142.981 389.759 142.981C389.759 142.981 391.174 129.444 393.446 126.326C393.964 125.518 394.628 124.834 395.398 124.316C396.167 123.799 397.025 123.459 397.919 123.318C398.813 123.176 399.724 123.236 400.596 123.493C401.469 123.75 402.283 124.2 402.99 124.814C403.697 125.428 404.282 126.194 404.708 127.064C405.134 127.934 405.392 128.89 405.467 129.873C405.543 130.857 405.433 131.846 405.144 132.781C404.856 133.717 404.396 134.577 403.791 135.311L403.787 135.297Z" fill="black"/>
<path opacity="0.25" d="M399.753 159.998C396.293 161.268 384.16 158.108 384.16 158.108C384.16 158.108 392.085 147.586 395.544 146.316C396.382 145.941 397.282 145.758 398.187 145.778C399.092 145.797 399.985 146.02 400.808 146.431C401.632 146.842 402.369 147.434 402.975 148.169C403.581 148.904 404.043 149.767 404.331 150.705C404.62 151.642 404.729 152.635 404.652 153.62C404.576 154.606 404.315 155.564 403.885 156.435C403.456 157.306 402.868 158.071 402.157 158.684C401.446 159.297 400.628 159.744 399.753 159.998Z" fill="black"/>
<path opacity="0.25" d="M377.878 189.199C374.307 188.386 365.29 178.971 365.29 178.971C365.29 178.971 376.997 174.257 380.568 175.066C382.193 175.552 383.588 176.696 384.468 178.265C385.348 179.835 385.647 181.712 385.304 183.513C384.961 185.315 384.002 186.906 382.622 187.963C381.242 189.019 379.546 189.461 377.878 189.199Z" fill="black"/>
<path opacity="0.25" d="M356.773 207.219C353.128 207.084 342.782 199.464 342.782 199.464C342.782 199.464 353.591 192.657 357.237 192.797C358.143 192.766 359.045 192.939 359.888 193.304C360.73 193.67 361.495 194.22 362.135 194.921C362.774 195.623 363.275 196.46 363.607 197.382C363.938 198.303 364.093 199.289 364.061 200.279C364.029 201.268 363.811 202.24 363.422 203.134C363.032 204.028 362.479 204.825 361.795 205.475C361.112 206.126 360.314 206.617 359.45 206.917C358.586 207.217 357.675 207.32 356.773 207.219Z" fill="black"/>
<path opacity="0.25" d="M372.863 149.281C373.326 153.236 381.23 163.776 381.23 163.776C381.23 163.776 386.436 151.392 385.968 147.442C385.645 145.641 384.706 144.041 383.343 142.968C381.98 141.895 380.294 141.428 378.627 141.662C376.96 141.896 375.437 142.813 374.367 144.228C373.297 145.643 372.759 147.449 372.863 149.281Z" fill="black"/>
<path opacity="0.25" d="M348.423 170.7C349.95 174.316 360.382 181.796 360.382 181.796C360.382 181.796 361.95 168.282 360.423 164.662C359.621 163.05 358.287 161.832 356.693 161.254C355.098 160.676 353.362 160.781 351.836 161.549C350.311 162.317 349.109 163.689 348.475 165.388C347.841 167.088 347.822 168.986 348.423 170.7Z" fill="black"/>
<path opacity="0.25" d="M327.285 195.079C328.232 198.93 337.353 208.223 337.353 208.223C337.353 208.223 340.994 195.192 340.051 191.342C339.515 189.596 338.39 188.14 336.905 187.269C335.42 186.399 333.687 186.179 332.059 186.656C330.431 187.133 329.031 188.269 328.144 189.835C327.257 191.4 326.949 193.275 327.285 195.079Z" fill="black"/>
</g>
<g opacity="0.1">
<path opacity="0.1" d="M311.361 172.847C311.361 172.847 312.834 138.985 329.854 120.098C337.04 112.227 341.694 102.023 343.117 91.0178C343.752 85.7827 343.946 80.4952 343.697 75.2215" stroke="#535461" stroke-width="2" stroke-miterlimit="10"/>
<path opacity="0.1" d="M354.369 63.2442C353.173 67.0137 343.465 75.565 343.465 75.565C343.465 75.565 340.692 62.2815 341.884 58.5166C342.537 56.8246 343.756 55.4674 345.291 54.7203C346.827 53.9732 348.566 53.8922 350.154 54.4937C351.743 55.0952 353.062 56.3342 353.845 57.9592C354.628 59.5843 354.815 61.4738 354.369 63.2442Z" fill="#6C63FF"/>
<path opacity="0.1" d="M358.064 88.0122C355.168 90.4619 342.778 91.8811 342.778 91.8811C342.778 91.8811 347.061 79.0813 349.937 76.6316C351.327 75.5971 353.026 75.1794 354.688 75.4634C356.35 75.7474 357.851 76.7117 358.886 78.1605C359.92 79.6093 360.411 81.4339 360.259 83.2637C360.106 85.0935 359.322 86.7913 358.064 88.0122Z" fill="#6C63FF"/>
<path opacity="0.1" d="M346.296 123.483C342.679 124.012 331.311 118.394 331.311 118.394C331.311 118.394 340.924 109.707 344.553 109.178C346.231 109.053 347.89 109.629 349.193 110.791C350.495 111.952 351.345 113.612 351.568 115.432C351.791 117.253 351.372 119.098 350.395 120.593C349.418 122.088 347.957 123.122 346.308 123.483H346.296Z" fill="#6C63FF"/>
<path opacity="0.1" d="M331.853 148.129C328.373 149.322 316.302 145.869 316.302 145.869C316.302 145.869 324.429 135.537 327.914 134.348C328.76 133.987 329.665 133.82 330.572 133.858C331.48 133.895 332.371 134.136 333.19 134.566C334.008 134.995 334.737 135.604 335.331 136.354C335.925 137.105 336.372 137.981 336.643 138.928C336.914 139.874 337.003 140.872 336.906 141.858C336.809 142.845 336.527 143.799 336.077 144.661C335.628 145.523 335.021 146.275 334.295 146.87C333.568 147.465 332.737 147.891 331.853 148.12V148.129Z" fill="#6C63FF"/>
<path opacity="0.1" d="M329.441 87.6416C331.096 91.2031 341.739 98.2855 341.739 98.2855C341.739 98.2855 342.886 84.7264 341.247 81.1603C340.395 79.5776 339.024 78.408 337.412 77.8886C335.8 77.3692 334.067 77.5389 332.565 78.3634C331.064 79.1878 329.905 80.6053 329.325 82.3283C328.745 84.0512 328.786 85.9508 329.441 87.6416Z" fill="#6C63FF"/>
<path opacity="0.1" d="M312.888 116.703C315.429 119.564 327.537 122.841 327.537 122.841C327.537 122.841 324.918 109.517 322.377 106.656C321.131 105.418 319.5 104.746 317.817 104.775C316.133 104.805 314.522 105.534 313.313 106.814C312.104 108.094 311.387 109.829 311.308 111.667C311.229 113.504 311.794 115.305 312.888 116.703Z" fill="#6C63FF"/>
<path opacity="0.1" d="M300.349 147.356C302.418 150.646 313.84 156.111 313.84 156.111C313.84 156.111 313.314 142.497 311.258 139.207C310.217 137.773 308.719 136.823 307.063 136.549C305.407 136.274 303.718 136.695 302.334 137.726C300.951 138.758 299.978 140.323 299.609 142.108C299.241 143.892 299.505 145.762 300.349 147.342V147.356Z" fill="#6C63FF"/>
</g>
<path opacity="0.1" d="M178.36 38.6435C178.36 38.6435 168.499 37.9972 169.67 45.5451C169.61 45.928 169.662 46.3219 169.82 46.6702C169.977 47.0186 170.232 47.3034 170.547 47.484C170.547 47.484 170.547 46.9236 171.557 47.1134C171.91 47.1806 172.27 47.2003 172.628 47.1722C173.113 47.1354 173.573 46.9276 173.94 46.5801C173.94 46.5801 176.713 45.3281 177.789 40.3791C177.789 40.3791 178.587 39.2988 178.554 39.0231L176.899 39.8005C176.899 39.8005 177.466 41.1112 177.019 42.2005C177.019 42.2005 176.965 39.8457 176.647 39.9C176.58 39.9 175.782 40.3519 175.782 40.3519C175.782 40.3519 176.762 42.6389 176.022 44.2976C176.022 44.2976 176.303 41.4819 175.475 40.5192L174.304 41.2649C174.304 41.2649 175.447 43.6242 174.673 45.5496C174.673 45.5496 174.871 42.5982 174.06 41.4457L172.997 42.3496C172.997 42.3496 174.073 44.6773 173.411 46.2727C173.411 46.2727 173.328 42.8333 172.761 42.5756C172.359 42.9471 172.001 43.3705 171.693 43.8366C171.693 43.8366 172.426 45.527 171.97 46.4174C171.97 46.4174 171.693 44.1259 171.461 44.1168C171.461 44.1168 170.535 45.6355 170.439 46.675C170.484 45.7103 170.759 44.7753 171.238 43.9632C170.704 44.0738 170.211 44.3517 169.819 44.7632C169.819 44.7632 169.963 43.692 171.474 43.5971C171.474 43.5971 172.239 42.4446 172.442 42.3768C172.442 42.3768 170.948 42.2367 170.046 42.6796C170.046 42.6796 170.841 41.6672 172.715 42.1237L173.766 41.1926C173.766 41.1926 171.801 40.8988 170.965 41.2197C170.965 41.2197 171.925 40.3158 174.048 40.9802L175.19 40.2344C174.312 40.022 173.411 39.9369 172.513 39.9813C172.513 39.9813 173.568 39.3621 175.525 40.031L176.353 39.6333C176.353 39.6333 175.111 39.3712 174.764 39.326C174.416 39.2808 174.387 39.1768 174.387 39.1768C175.164 39.0353 175.962 39.1323 176.692 39.457C176.692 39.457 178.393 38.7655 178.36 38.6435Z" fill="#013500"/>
<path opacity="0.1" d="M152.463 75.3751C152.463 75.3751 149.095 85.5219 156.051 86.4484C156.371 86.6195 156.732 86.6757 157.083 86.6092C157.433 86.5426 157.756 86.3566 158.004 86.0778C158.004 86.0778 157.516 85.9015 157.967 84.9162C158.12 84.5634 158.234 84.1916 158.306 83.8089C158.412 83.2916 158.361 82.7507 158.161 82.2677C158.161 82.2677 157.851 79.009 153.812 76.4779C153.812 76.4779 153.088 75.3344 152.836 75.2892L153.047 77.2508C153.047 77.2508 154.358 77.0293 155.19 77.8067C155.19 77.8067 153.121 77.1966 153.063 77.5446C153.063 77.6169 153.216 78.5796 153.216 78.5796C153.216 78.5796 155.5 78.2045 156.75 79.4474C156.75 79.4474 154.358 78.3581 153.278 78.9457L153.601 80.3875C153.601 80.3875 155.997 79.8587 157.466 81.2191C157.466 81.2191 154.929 80.1705 153.688 80.6948L154.18 82.0507C154.18 82.0507 156.527 81.5988 157.743 82.7242C157.743 82.7242 154.702 81.8202 154.313 82.3581C154.525 82.8852 154.796 83.3816 155.12 83.836C155.12 83.836 156.808 83.5468 157.462 84.288C157.462 84.288 155.372 83.9309 155.298 84.1705C155.298 84.1705 156.365 85.5716 157.251 85.9784C156.421 85.6588 155.682 85.1072 155.107 84.3784C155.057 84.9618 155.162 85.5488 155.409 86.0687C155.409 86.0687 154.511 85.6168 154.855 84.0168C154.855 84.0168 154.06 82.8869 154.056 82.6609C154.056 82.6609 153.514 84.1886 153.642 85.2597C153.642 85.2597 152.98 84.1388 153.916 82.3038L153.394 80.9479C153.394 80.9479 152.567 82.923 152.624 83.8857C152.624 83.8857 152.111 82.6293 153.287 80.5909L152.956 79.1852C152.523 80.0395 152.194 80.9509 151.975 81.8971C151.975 81.8971 151.731 80.6135 152.877 78.7604L152.757 77.7886C152.757 77.7886 152.178 78.9999 152.037 79.366C151.896 79.7321 151.797 79.7186 151.797 79.7186C151.895 78.8638 152.207 78.0552 152.699 77.3819C152.699 77.3819 152.579 75.3796 152.463 75.3751Z" fill="#013500"/>
<path opacity="0.1" d="M217.863 66.8284C217.863 66.8284 214.49 76.9706 221.451 77.8971C221.769 78.0684 222.13 78.1252 222.48 78.0594C222.83 77.9937 223.152 77.8087 223.4 77.531C223.4 77.531 222.916 77.3547 223.363 76.3649C223.522 76.0128 223.641 75.641 223.718 75.2576C223.825 74.7414 223.773 74.2012 223.569 73.7209C223.569 73.7209 223.259 70.4622 219.22 67.9266C219.22 67.9266 218.5 66.7832 218.248 66.738L218.455 68.704C218.455 68.704 219.771 68.4781 220.598 69.2554C220.598 69.2554 218.529 68.6453 218.475 68.9978C218.475 69.0656 218.628 70.0328 218.628 70.0328C218.628 70.0328 220.913 69.6532 222.158 70.9006C222.158 70.9006 219.771 69.8068 218.686 70.3989L219.009 71.8362C219.009 71.8362 221.405 71.3074 222.878 72.6678C222.878 72.6678 220.342 71.6192 219.1 72.148L219.593 73.504C219.593 73.504 221.939 73.052 223.156 74.1774C223.156 74.1774 220.114 73.2735 219.725 73.8068C219.937 74.333 220.207 74.8293 220.528 75.2847C220.528 75.2847 222.22 74.9955 222.874 75.7367C222.874 75.7367 220.78 75.3796 220.71 75.6147C220.71 75.6147 221.778 77.0158 222.663 77.4225C221.832 77.1011 221.091 76.548 220.515 75.8181C220.461 76.409 220.566 77.0046 220.818 77.531C220.818 77.531 219.915 77.079 220.259 75.4746C220.259 75.4746 219.469 74.3491 219.464 74.1186C219.464 74.1186 218.918 75.6418 219.051 76.7175C219.051 76.7175 218.388 75.5921 219.328 73.7616L218.802 72.4057C218.802 72.4057 217.975 74.3808 218.037 75.348C218.037 75.348 217.524 74.087 218.699 72.0486L218.368 70.643C217.935 71.4967 217.605 72.4083 217.387 73.3548C217.387 73.3548 217.139 72.0757 218.285 70.2181L218.165 69.2509C218.165 69.2509 217.586 70.4622 217.449 70.8238C217.313 71.1854 217.209 71.1808 217.209 71.1808C217.305 70.3254 217.617 69.5161 218.111 68.8441C218.111 68.8441 217.975 66.8284 217.863 66.8284Z" fill="#013500"/>
<path opacity="0.1" d="M111.003 54.119C111.003 54.119 107.63 64.2657 114.59 65.1877C114.909 65.3604 115.269 65.418 115.62 65.3521C115.97 65.2863 116.292 65.1005 116.54 64.8216C116.54 64.8216 116.055 64.6454 116.502 63.6601C116.66 63.3072 116.779 62.9356 116.858 62.5527C116.963 62.0349 116.911 61.494 116.709 61.0115C116.709 61.0115 116.399 57.7528 112.36 55.2172C112.36 55.2172 111.64 54.0783 111.387 54.0331L111.594 55.9946C111.594 55.9946 112.906 55.7732 113.738 56.5506C113.738 56.5506 111.669 55.9359 111.615 56.2884C111.615 56.3607 111.768 57.3234 111.768 57.3234C111.768 57.3234 114.052 56.9483 115.298 58.1912C115.298 58.1912 112.906 57.0974 111.826 57.6895L112.149 59.1313C112.149 59.1313 114.545 58.6025 116.014 59.9629C116.014 59.9629 113.481 58.9144 112.24 59.4387L112.732 60.7946C112.732 60.7946 115.079 60.3426 116.295 61.468C116.295 61.468 113.25 60.5641 112.865 61.0974C113.077 61.6252 113.346 62.123 113.668 62.5799C113.668 62.5799 115.36 62.2861 116.01 63.0318C116.01 63.0318 113.92 62.6748 113.846 62.9143C113.846 62.9143 114.917 64.3109 115.803 64.7222C114.97 64.4027 114.23 63.8493 113.655 63.1177C113.6 63.7087 113.705 64.3042 113.957 64.8307C113.957 64.8307 113.055 64.3787 113.399 62.7787C113.399 62.7787 112.604 61.6488 112.604 61.4228C112.604 61.4228 112.058 62.9505 112.19 64.0216C112.19 64.0216 111.528 62.9007 112.463 61.0657L111.942 59.7098C111.942 59.7098 111.114 61.6895 111.172 62.6522C111.172 62.6522 110.659 61.3957 111.834 59.3573L111.507 57.9471C111.074 58.8009 110.745 59.7125 110.527 60.659C110.527 60.659 110.278 59.3799 111.425 57.5223L111.305 56.5551C111.305 56.5551 110.725 57.7664 110.589 58.1325C110.452 58.4986 110.349 58.485 110.349 58.485C110.444 57.6303 110.755 56.8213 111.247 56.1483C111.247 56.1483 111.131 54.1235 111.003 54.119Z" fill="#013500"/>
<path opacity="0.1" d="M214.606 122.945C214.606 122.945 217.209 133.34 223.383 129.725C223.734 129.664 224.058 129.483 224.31 129.209C224.561 128.934 224.726 128.58 224.782 128.197C224.782 128.197 224.294 128.355 224.136 127.266C224.08 126.879 223.982 126.501 223.843 126.14C223.655 125.652 223.329 125.243 222.911 124.974C222.911 124.974 220.938 122.511 216.29 122.981C216.29 122.981 215.099 122.502 214.867 122.624L216.075 124.098C216.075 124.098 217.027 123.09 218.115 123.194C218.115 123.194 216.092 124.003 216.245 124.314C216.274 124.378 216.915 125.065 216.915 125.065C216.915 125.065 218.571 123.32 220.259 123.551C220.259 123.551 217.73 124.165 217.155 125.327L218.182 126.303C218.182 126.303 219.862 124.36 221.778 124.545C221.778 124.545 219.154 125.286 218.417 126.498L219.543 127.307C219.543 127.307 221.198 125.449 222.808 125.612C222.808 125.612 219.857 126.805 219.812 127.469C220.264 127.767 220.748 128.004 221.252 128.174C221.252 128.174 222.494 126.873 223.396 127.058C223.396 127.058 221.5 128.079 221.567 128.323C221.567 128.323 223.176 128.775 224.112 128.559C223.264 128.821 222.367 128.835 221.513 128.599C221.779 129.116 222.177 129.537 222.659 129.81C222.659 129.81 221.682 130.005 221.12 128.482C221.12 128.482 219.878 128.061 219.75 127.871C219.75 127.871 220.11 129.458 220.784 130.253C220.784 130.253 219.651 129.756 219.448 127.668L218.31 126.895C218.31 126.895 218.682 129.024 219.233 129.783C219.233 129.783 218.148 129.078 218.033 126.674L217.019 125.734C217.12 126.709 217.335 127.666 217.66 128.581C217.66 128.581 216.783 127.677 216.741 125.449L216.129 124.735C216.129 124.735 216.295 126.091 216.377 126.475C216.46 126.859 216.377 126.927 216.377 126.927C216.003 126.168 215.83 125.31 215.877 124.45C215.877 124.45 214.701 122.873 214.606 122.945Z" fill="#013500"/>
<path d="M337.465 181.584C338.367 182.723 339.363 183.77 340.44 184.711L348.501 192.214C349.937 193.547 351.398 194.926 353.219 195.554C354.296 195.924 355.437 196.019 356.553 195.832C357.669 195.644 358.732 195.18 359.658 194.474L359.521 194.424L359.658 194.325C358.296 193.846 356.902 193.348 355.78 192.386C355.318 192.008 354.93 191.534 354.637 190.991C354.345 190.448 354.154 189.846 354.075 189.222C354.075 189.159 354.075 189.1 354.075 189.037C354.078 188.865 354.094 188.695 354.121 188.526C355.858 188.364 357.528 187.722 358.975 186.659L358.834 186.605L358.975 186.51C354.679 185.005 351.704 180.603 350.355 175.943C349.006 171.283 349.002 166.321 348.857 161.444C348.712 156.567 348.381 151.555 346.453 147.144C345.729 145.489 344.797 143.916 344.446 142.127C344.349 141.595 344.303 141.055 344.309 140.513C344.338 138.773 344.802 137.024 345.228 135.324C346.175 131.529 346.932 127.68 347.496 123.795C347.717 122.414 347.841 121.016 347.864 119.614C347.903 118.246 347.702 116.882 347.272 115.596C345.377 110.218 338.789 107.682 337.783 102.037C337.665 101.277 337.615 100.507 337.634 99.7363C337.634 99.3115 337.634 98.8912 337.634 98.4708C337.634 98.0505 337.634 97.5669 337.601 97.1511C337.316 93.1782 335.065 89.7297 332.892 86.5072C330.277 82.6293 327.512 78.5977 323.494 76.5322C320.374 74.9186 316.203 74.3853 312.482 74.7469C310.813 73.1738 308.983 71.8164 307.028 70.7018C304.185 68.9752 301.235 67.2758 298.086 66.8962C294.092 66.4171 290.145 68.0894 286.139 68.3696C280.693 68.7538 275.346 66.5617 269.901 66.1097C264.455 65.6578 258.185 67.66 255.752 73.6486C255.182 75.1027 254.835 76.6496 254.726 78.2271C254.701 78.5299 254.684 78.8282 254.672 79.131V79.1626C254.632 80.3854 254.663 81.6098 254.767 82.8281V82.9682C254.767 83.2123 254.809 83.4564 254.833 83.7004C254.833 83.7727 254.833 83.8405 254.854 83.9128C254.854 84.1388 254.9 84.3648 254.924 84.5908L254.949 84.8032C254.982 85.088 255.02 85.3727 255.053 85.6575C255.116 86.2438 255.231 86.822 255.396 87.384C255.498 87.7087 255.646 88.0138 255.835 88.2879C256.427 89.1105 257.316 89.3546 258.235 89.5082L258.959 89.6212C258.885 89.7839 258.806 89.9467 258.736 90.1139C257.094 93.8947 256.245 98.0284 256.253 102.213C256.253 116.432 265.891 128.22 278.483 130.362L279.24 131.392C283.883 137.747 289.71 146.231 292.483 152.337C289.28 156.68 285.53 164.382 284.463 177.299L282.878 181.34C279.555 186.56 278.698 194.09 279.555 201.095C278.62 204.883 277.552 209.642 276.811 213.579C271.303 212.245 252.504 208.946 248.059 205.742L235.024 199.034C235.024 199.034 218.057 186.09 208.929 190.411C205.44 185.728 200.176 180.824 197.909 178.971C194.019 175.785 184.344 163.338 184.344 163.338L169.185 141.363C169.144 138.818 168.896 136.644 168.259 135.709C166.471 133.096 157.007 127.297 155.116 128.549C153.225 129.801 151.644 125.838 151.644 125.838L151.499 125.752C151.143 125.526 150.133 124.902 148.73 124.079C148.657 122.245 148.698 120.407 148.855 118.579C148.884 118.272 148.921 117.964 148.962 117.675C153.987 117.477 158.815 115.491 162.711 112.021C166.607 108.55 169.359 103.784 170.547 98.4482C170.613 98.1635 170.659 97.8697 170.712 97.5804C171.391 97.7525 172.098 97.7315 172.767 97.5194C173.436 97.3073 174.044 96.9113 174.532 96.3692C175.856 94.8144 175.914 92.4235 175.492 90.3625C175.07 88.3015 174.251 86.3264 174.044 84.2202C173.783 81.3502 174.71 78.3446 173.857 75.6328C173.142 73.3187 171.255 71.6373 169.243 70.539C167.232 69.4408 165.031 68.799 162.974 67.8001C161.013 66.851 159.188 65.5764 157.152 64.8261C154.511 63.8544 151.673 63.8182 148.875 63.8906C147.121 63.1177 145.333 62.381 143.454 62.1505C141.385 61.8928 139.109 62.3313 137.533 63.8363C136.291 65.0386 135.281 66.9685 133.597 67.0318C132.769 67.0634 132.025 66.6159 131.288 66.2318C129.198 65.138 126.554 64.5188 124.667 65.9696C123.152 67.1267 122.598 69.2554 122.337 71.2396C122.076 73.2237 122.031 75.3073 121.154 77.0836C120.611 78.1773 119.788 79.0677 119.105 80.0621C117.377 82.5861 116.562 85.7179 116.817 88.8574V88.9478C116.717 88.4958 116.622 88.0755 116.552 87.6326C116.552 87.967 116.552 88.297 116.593 88.6314C116.773 90.182 117.082 91.7115 117.516 93.2008L119.229 99.7544C120.098 103.081 120.988 106.457 122.643 109.418C123.289 110.584 124.069 111.655 124.965 112.604C126.376 114.222 128.18 115.365 130.167 115.899C130.864 116.07 131.582 116.117 132.294 116.039C132.294 116.134 132.273 116.224 132.256 116.319C132.103 116.287 131.946 116.251 131.801 116.229C131.129 116.076 130.433 116.096 129.769 116.287C126.5 117.558 125.507 121.422 125.217 122.94C125.151 123.329 125.13 123.564 125.13 123.564C125.13 123.564 125.184 123.79 125.246 124.174L125.217 124.305C125.151 124.69 125.13 124.929 125.13 124.929C125.13 124.929 125.184 125.155 125.246 125.548L124.394 125.571L110.138 127.605C106.881 127.361 103.782 127.302 102.122 127.736C101.982 127.77 101.843 127.814 101.708 127.867C99.6392 128.649 90.1586 135.795 81.6505 142.371C81.6505 142.19 81.6505 142.014 81.6257 141.842L79.2048 143.722C79.2048 143.898 79.2048 144.084 79.2048 144.269C78.6007 144.721 78.0006 145.2 77.4213 145.657C74.8184 147.69 72.4555 149.525 70.6967 150.931C68.5532 152.612 67.2248 153.674 67.2248 153.674C67.2248 153.674 66.4385 153.955 65.9171 155.279C65.2467 156.974 65.015 160.382 67.4358 167.089C71.7478 179.026 72.6913 187.098 72.6913 187.098C71.5215 187.231 70.3733 187.535 69.2773 188.002C67.7835 188.652 66.2234 189.755 65.5737 191.617C65.1566 192.918 65.1464 194.333 65.5447 195.64C67.5393 203.369 100.558 247.255 100.558 247.255L100.972 247.296C102.665 247.459 104.368 247.459 106.062 247.296C107.605 247.119 109.049 246.717 109.712 245.867C109.712 245.867 117.032 256.132 127.783 249.14C127.708 258.45 127.493 265.28 128.846 268.719C130.953 274.061 130.953 286.224 130.953 286.224L132.956 286.301C132.848 286.753 132.728 287.205 132.6 287.657C131.677 290.988 130.316 295.015 128.875 295.977C126.45 297.604 127.601 325.572 127.7 327.986C127.7 328.081 127.7 328.131 127.7 328.131L127.559 339.43V340.334C127.259 339.893 126.989 339.427 126.753 338.942C126.753 338.942 122.854 343.009 122.784 351.597C122.714 360.184 122.854 360.474 122.854 360.474C122.854 360.474 138.579 359.809 141.53 360.993C144.481 362.178 169.157 359.963 169.157 359.963C169.157 359.963 170.071 357.369 167.439 355.375C171.635 355.045 176.212 354.169 178.894 352.044C184.791 347.394 166.996 343.769 165.755 343.032C164.513 342.295 158.364 336.37 155.823 334.151C155.055 333.538 154.147 333.169 153.2 333.084L153.518 322.956C157.305 318.296 161.406 292.601 161.406 292.601C162.746 291.381 163.33 288.411 163.57 286.599C164.06 286.422 164.488 286.084 164.797 285.632C165.105 285.18 165.279 284.636 165.296 284.073C169.628 284.231 175.078 284.195 176.125 283.06C177.913 281.126 177.702 274.531 177.702 274.531L175.178 204.729L175.012 204.462C175.429 201.267 175.438 198.024 175.037 194.826C180.706 196.594 185.117 197.796 185.117 197.796C185.117 197.796 193.65 199.513 199.638 200.96C198.658 202.097 197.918 203.454 197.47 204.937C192.09 221.66 222.601 220.968 222.601 220.968L237.006 228.245L270.914 240.349C260.019 236.837 247.571 232.706 239.1 229.872C238.266 229.594 237.417 229.369 236.559 229.199C228.788 227.662 220.714 230.754 215.765 237.574C215.707 237.66 215.653 237.736 215.591 237.818C214.406 239.502 213.746 241.556 213.707 243.68C213.668 245.803 214.253 247.885 215.376 249.619C216.671 251.621 218.405 254.283 220.437 257.379C216.137 258.798 209.024 262.753 213.348 272.922C219.34 287.019 235.425 295.069 235.425 295.069C235.425 295.069 245.94 298.368 248.668 302.007C249.433 303.028 252.392 305.293 256.261 308.022C258.744 310.892 260.689 312.768 261.844 313.184C266.453 314.843 275.429 322.802 281.744 328.772L280.796 343.037L280.734 343.895L280.345 343.534C280.345 343.534 277.552 349.861 269.458 351.981C267.834 352.38 266.396 353.403 265.406 354.865L265.378 354.905L265.137 355.285L264.955 355.136C263.3 357.68 262.53 361.387 268.779 362.408C278.558 363.999 289.47 361.726 289.47 361.726L299.22 351.882C300.303 352.877 301.575 353.598 302.944 353.992C310.231 355.8 330.699 364.451 330.699 364.451C330.699 362.024 348.787 330.802 348.787 330.802C373.202 280.326 346.651 242.604 343.717 238.677L343.457 238.333L343.229 234.139L343.179 233.176C343.179 233.176 356.355 226.812 351.307 223.784C346.258 220.756 343.444 206.198 338.69 200.137C334.965 195.409 335.18 184.436 334.787 175.084C335.214 177.393 336.131 179.561 337.465 181.412C337.494 181.453 337.527 181.484 337.556 181.525L337.204 181.19C337.291 181.335 337.374 181.462 337.465 181.584ZM175.111 177.706C176.808 179.699 179.771 182.248 181.732 183.866C179.382 182.614 177.553 181.557 176.142 180.702C175.811 179.699 175.463 178.696 175.111 177.706ZM124.919 130.407C124.514 131.734 123.776 132.91 122.788 133.801L121.961 129.901C123.045 130.091 124.054 130.267 124.919 130.407ZM290.314 237.574C290.641 236.805 290.98 236.051 291.324 235.314C292.775 234.798 294.055 233.827 295.003 232.521C295.724 235.255 296.258 238.044 296.6 240.864C296.6 240.995 296.6 241.068 296.6 241.068C296.582 242.205 296.425 243.334 296.132 244.426C295.752 245.745 295.057 246.988 293.794 247.137C293.269 247.196 290.682 246.514 286.813 245.361C285.692 245.027 284.459 244.652 283.143 244.245C285.208 244.096 288.08 242.826 290.314 237.574ZM322.695 142.208C321.922 140.852 320.308 139.984 318.334 139.474C317.974 139.211 317.415 138.796 316.703 138.231C313.227 135.451 306.288 129.191 303.105 121.196C303.992 120.926 304.859 120.58 305.696 120.161C306.996 119.51 308.223 118.699 309.354 117.743C309.735 117.417 310.107 117.078 310.463 116.726C311.375 115.828 312.206 114.836 312.946 113.765C313.24 113.314 313.525 112.884 313.774 112.41C314.179 111.714 314.547 110.992 314.874 110.249C315.628 108.514 316.209 106.696 316.608 104.826C316.77 104.075 316.91 103.311 317.022 102.543C317.134 101.775 317.241 101.002 317.32 100.224C317.577 97.4815 317.675 94.7235 317.614 91.967C317.614 91.8359 317.614 91.7003 317.614 91.5692C317.614 91.5195 317.614 91.4698 317.614 91.4246C317.602 88.6302 317.324 85.8447 316.786 83.1129C316.972 83.1897 317.159 83.2665 317.337 83.3569C317.636 83.517 317.921 83.7061 318.189 83.9219C318.123 83.8179 318.048 83.714 317.978 83.61C319.178 84.4597 320.072 85.784 320.875 87.1038C324.552 93.3657 326.901 100.447 327.749 107.828C328.597 115.21 327.922 122.705 325.774 129.765C325.17 131.704 324.446 133.634 324.285 135.673C323.701 142.954 330.078 148.508 332.449 155.351C333.637 158.782 333.823 162.583 333.98 166.343C332.193 156.82 325.658 147.446 322.708 142.226L322.695 142.208Z" fill="url(#paint0_linear)"/>
<path d="M164.513 286.188C164.513 286.188 164.203 291.837 162.237 293.645C162.237 293.645 158.203 319.182 154.478 323.814L153.858 326.413L138.339 324.492L141.443 301.894L144.34 281.103L164.513 286.188Z" fill="#FFC1C8"/>
<path opacity="0.03" d="M164.513 286.188C164.513 286.188 164.203 291.837 162.237 293.645C162.237 293.645 158.203 319.182 154.478 323.814L153.858 326.413L138.339 324.492L141.443 301.894L144.34 281.103L164.513 286.188Z" fill="black"/>
<path d="M147.791 324.131L154.478 323.81L154.122 335.308L149.004 339.055L139.784 336.849L143.148 321.482L147.791 324.131Z" fill="#FF748F"/>
<path opacity="0.03" d="M147.791 324.131L154.478 323.81L154.122 335.308L149.004 339.055L139.784 336.849L143.148 321.482L147.791 324.131Z" fill="black"/>
<path d="M149.004 334.427C149.004 334.427 154.255 332.736 156.746 334.942C159.237 337.147 165.296 343.028 166.508 343.764C167.721 344.501 185.204 348.103 179.432 352.731C173.659 357.36 158.836 356.04 158.836 356.04C158.836 356.04 149.14 352.948 148.871 352.804C148.602 352.659 142.664 349.495 142.478 349.274C142.291 349.052 144.158 334.359 144.158 334.359L149.004 334.427Z" fill="#5D618C"/>
<path opacity="0.03" d="M149.004 334.427C149.004 334.427 154.255 332.736 156.746 334.942C159.237 337.147 165.296 343.028 166.508 343.764C167.721 344.501 185.204 348.103 179.432 352.731C173.659 357.36 158.836 356.04 158.836 356.04C158.836 356.04 149.14 352.948 148.871 352.804C148.602 352.659 142.664 349.495 142.478 349.274C142.291 349.052 144.158 334.359 144.158 334.359L149.004 334.427Z" fill="black"/>
<path d="M133.787 181.67L133.477 202.677L132.774 247.49L132.36 247.883C120.049 259.522 111.358 247.205 111.358 247.205C110.705 248.051 109.289 248.453 107.767 248.624C106.101 248.787 104.425 248.787 102.759 248.624L102.345 248.584C102.345 248.584 69.8525 204.937 67.8869 197.254C67.497 195.954 67.5071 194.551 67.9158 193.258C68.5572 191.423 70.0925 190.329 71.5616 189.683C72.6392 189.218 73.7695 188.914 74.9218 188.779C74.9218 188.779 73.9907 180.757 69.749 168.892C67.3654 162.226 67.5972 158.841 68.2552 157.141C68.7683 155.826 69.5421 155.546 69.5421 155.546C69.5421 155.546 70.8498 154.493 72.9561 152.834C74.7066 151.437 77.0115 149.611 79.5772 147.591L81.9567 145.729C90.7338 138.85 101.311 130.751 103.475 129.91C103.61 129.856 103.749 129.812 103.889 129.779C108.329 128.608 123.231 131.04 123.231 131.04L133.787 181.67Z" fill="#6C63FF"/>
<path opacity="0.1" d="M133.787 181.67L133.477 202.677C118.758 197.936 105.073 166.519 103.268 164.043C101.725 161.891 103.31 137.932 103.893 129.788C108.333 128.617 123.235 131.049 123.235 131.049L133.787 181.67Z" fill="black"/>
<path d="M302.729 140.757C302.729 140.757 291.245 147.198 289.797 172.508C289.797 172.508 287.935 185.389 286.9 187.649C285.866 189.909 280.9 211.265 281.521 213.863C281.521 213.863 280.486 216.462 276.658 215.332C272.83 214.202 252.14 210.7 247.484 207.31L234.656 200.643C234.656 200.643 209.62 181.322 204.343 197.931C199.067 214.541 229.069 213.872 229.069 213.872L243.242 221.104L286.176 236.575C286.176 236.575 291.866 239.4 295.694 230.36C298.143 224.666 301.051 219.221 304.384 214.089C304.384 214.089 313.074 187.423 312.971 182.903C312.867 178.384 322.282 167.649 322.282 167.649C322.282 167.649 324.144 139.175 308.833 139.74L302.729 140.757Z" fill="#FFC1C7"/>
<path opacity="0.03" d="M302.729 140.757C302.729 140.757 291.245 147.198 289.797 172.508C289.797 172.508 287.935 185.389 286.9 187.649C285.866 189.909 280.9 211.265 281.521 213.863C281.521 213.863 280.486 216.462 276.658 215.332C272.83 214.202 252.14 210.7 247.484 207.31L234.656 200.643C234.656 200.643 209.62 181.322 204.343 197.931C199.067 214.541 229.069 213.872 229.069 213.872L243.242 221.104L286.176 236.575C286.176 236.575 291.866 239.4 295.694 230.36C298.143 224.666 301.051 219.221 304.384 214.089C304.384 214.089 313.074 187.423 312.971 182.903C312.867 178.384 322.282 167.649 322.282 167.649C322.282 167.649 324.144 139.175 308.833 139.74L302.729 140.757Z" fill="black"/>
<path d="M181.273 162.741C181.894 163.532 184.791 165.164 184.791 165.164C184.791 165.164 194.308 177.534 198.136 180.698C201.964 183.862 214.482 195.952 211.949 200.53C209.417 205.109 206.57 204.087 206.57 204.087L184.17 187.138C184.17 187.138 176.307 180.983 174.706 178.045C173.104 175.107 171.135 168.956 171.135 168.956L181.273 162.741Z" fill="#FFC1C8"/>
<path opacity="0.03" d="M181.273 162.741C181.894 163.532 184.791 165.164 184.791 165.164C184.791 165.164 194.308 177.534 198.136 180.698C201.964 183.862 214.482 195.952 211.949 200.53C209.417 205.109 206.57 204.087 206.57 204.087L184.17 187.138C184.17 187.138 176.307 180.983 174.706 178.045C173.104 175.107 171.135 168.956 171.135 168.956L181.273 162.741Z" fill="black"/>
<path d="M168.705 141.611L184.791 165.168L170.307 171.328L164.307 151.609L168.705 141.611Z" fill="#DCE6F2"/>
<path opacity="0.03" d="M168.705 141.611L184.791 165.168L170.307 171.328L164.307 151.609L168.705 141.611Z" fill="black"/>
<path d="M172.893 201.669L175.79 206.302L178.273 275.679C178.273 275.679 178.48 282.233 176.721 284.154C174.962 286.075 160.582 284.832 160.582 284.832C160.582 284.832 161.099 214.098 161.306 212.743C161.513 211.387 172.893 201.669 172.893 201.669Z" fill="#575988"/>
<path opacity="0.1" d="M172.893 201.669L175.79 206.302L178.273 275.679C178.273 275.679 178.48 282.233 176.721 284.154C174.962 286.075 160.582 284.832 160.582 284.832C160.582 284.832 161.099 214.098 161.306 212.743C161.513 211.387 172.893 201.669 172.893 201.669Z" fill="black"/>
<path d="M153.522 289.37C152.58 291.899 151.474 294.352 150.212 296.71C150.212 296.71 147.522 313.473 146.376 315.019C145.548 316.149 145.167 324.583 145.031 328.98C144.981 330.571 144.961 331.633 144.961 331.633L129.144 339.868L129.074 328.985C129.074 328.985 129.074 328.935 129.074 328.84C128.975 326.44 127.833 298.644 130.229 297.026C131.636 296.072 132.976 292.054 133.883 288.759C134.574 286.215 135.008 284.086 135.008 284.086C135.008 284.086 152.579 282.839 154.044 284.895C154.582 285.627 154.209 287.408 153.522 289.37Z" fill="#FFC1C8"/>
<path opacity="0.1" d="M153.522 289.37C146.396 289.207 137.466 288.877 133.858 288.737C134.549 286.192 134.983 284.063 134.983 284.063C134.983 284.063 152.554 282.816 154.019 284.872C154.582 285.627 154.209 287.408 153.522 289.37Z" fill="black"/>
<path d="M132.753 186.528C132.753 186.528 127.891 214.776 128.822 232.968C129.753 251.16 128.097 264.597 130.167 269.917C132.236 275.236 132.236 287.318 132.236 287.318C132.236 287.318 160.375 288.448 163.272 287.996C166.169 287.544 166.065 285.171 166.065 285.171C166.065 285.171 164.1 266.405 165.962 260.529C167.824 254.654 167.514 236.688 167.514 236.688L175.376 207.762C175.376 207.762 177.756 194.768 172.79 189.457C167.824 184.146 132.753 186.528 132.753 186.528Z" fill="#575988"/>
<path d="M299.729 335.792L298.487 337.78L290.811 350.255L284.293 352.401L279.431 347.204L279.667 343.773L280.879 325.961C280.879 325.961 250.795 306.63 248.105 303.015C245.415 299.399 235.069 296.122 235.069 296.122C235.069 296.122 219.241 288.1 213.344 274.088C207.447 260.077 223.172 257.931 223.172 257.931L282.245 319.634L299.729 335.792Z" fill="#FFC1C7"/>
<path opacity="0.1" d="M298.508 337.776L290.831 350.25L284.314 352.397L279.451 347.199L279.687 343.769L285.038 348.781L295.073 336.013L298.508 337.776Z" fill="black"/>
<path d="M306.97 343.023L288.245 362.119C288.245 362.119 277.486 364.379 267.865 362.797C261.715 361.784 262.899 358.101 264.517 355.565L264.546 355.52C265.515 354.07 266.932 353.052 268.535 352.655C276.497 350.557 279.245 344.261 279.245 344.261L285.038 349.685L295.073 336.912L302.493 340.718L306.97 343.023Z" fill="#575988"/>
<path d="M306.97 343.24L288.245 362.345C288.245 362.345 277.486 364.605 267.865 363.023C261.715 362.01 262.485 358.327 264.103 355.791C265.963 357.402 268.197 358.418 270.554 358.724C275.831 359.289 283.797 358.724 283.797 358.724L302.493 340.948L306.97 343.24Z" fill="white"/>
<path d="M152.376 114.362C150.853 115.194 150.154 117.761 149.873 120.69C149.397 125.688 150.166 131.709 150.166 131.709C150.166 131.709 129.475 125.53 131.685 124.324C132.956 123.632 133.63 118.597 133.974 114.452C134.23 111.388 134.305 108.807 134.305 108.807C134.305 108.807 156.514 112.102 152.376 114.362Z" fill="#FFC1C8"/>
<path d="M317.076 141.783C317.076 141.783 291.969 167.695 292.797 160.165C292.913 159.116 292.582 157.665 291.928 155.952C289.607 149.842 283.188 140.355 278.169 133.417C274.486 128.328 271.548 124.608 271.548 124.608C271.548 124.608 302.729 95.985 300.246 112.256C299.728 115.966 300.201 119.76 301.607 123.185C304.715 131.175 311.601 137.462 315.04 140.237C316.281 141.236 317.076 141.783 317.076 141.783Z" fill="#FFC1C7"/>
<path opacity="0.1" d="M296.799 117.223C296.348 117.833 294.676 119.976 294.179 120.541C289.462 125.905 288.833 133.648 281.487 133.648C280.381 133.649 279.275 133.572 278.177 133.417C274.494 128.328 271.556 124.608 271.556 124.608C271.556 124.608 302.729 95.985 300.246 112.256C299.658 116.116 295.487 113.842 296.799 117.223Z" fill="black"/>
<path d="M307.417 104.419C307.418 110.021 305.898 115.498 303.048 120.157C300.199 124.816 296.149 128.447 291.41 130.591C286.671 132.736 281.456 133.297 276.425 132.204C271.394 131.111 266.772 128.414 263.145 124.452C259.518 120.49 257.048 115.443 256.047 109.948C255.047 104.453 255.561 98.7576 257.524 93.5817C259.488 88.4058 262.812 83.9821 267.078 80.87C271.343 77.758 276.358 76.0974 281.487 76.0983C284.896 76.0839 288.274 76.8067 291.426 78.2248C294.578 79.643 297.441 81.7285 299.852 84.3612C302.262 86.9938 304.172 90.1216 305.47 93.564C306.769 97.0065 307.43 100.696 307.417 104.419Z" fill="#FFC1C7"/>
<path opacity="0.1" d="M317.076 141.783C317.076 141.783 291.969 167.695 292.797 160.165C292.913 159.116 292.582 157.665 291.928 155.952L295.557 146.606C300.004 142.352 305.706 139.993 311.618 139.962C312.693 139.961 313.767 140.041 314.833 140.201L315.04 140.237C316.281 141.236 317.076 141.783 317.076 141.783Z" fill="black"/>
<path d="M346.593 331.611C346.593 331.611 328.799 362.643 328.799 365.057C328.799 365.057 308.659 356.469 301.487 354.661C294.316 352.853 287.554 336.433 287.554 336.433C287.554 336.433 268.518 316.845 261.07 314.133C254.751 311.833 224.385 265.049 215.339 250.934C214.231 249.207 213.655 247.14 213.694 245.031C213.733 242.923 214.384 240.883 215.554 239.205L215.723 238.966C218.117 235.676 221.288 233.163 224.893 231.696C228.498 230.229 232.402 229.864 236.183 230.641C237.022 230.809 237.851 231.033 238.666 231.309C251.693 235.707 274.254 243.264 285.634 246.676C289.441 247.82 291.986 248.484 292.503 248.444C293.745 248.304 294.428 247.088 294.804 245.754C295.091 244.67 295.246 243.548 295.263 242.419C295.263 242.419 295.263 242.347 295.263 242.216C294.915 239.342 294.367 236.502 293.625 233.718C292.296 228.747 289.996 222.912 286.176 220.123C283.006 217.814 280.486 212.72 279.166 206.799C277.391 198.804 277.8 189.29 281.761 183.062L285.588 173.2L291.99 156.703L295.557 147.51C300.004 143.256 305.706 140.896 311.618 140.866C312.693 140.865 313.767 140.945 314.833 141.105C317.577 141.521 319.948 142.42 320.937 144.192C323.97 149.616 330.868 159.559 332.246 169.503C333.624 179.446 331.973 195.717 336.662 201.746C341.35 207.775 344.111 222.234 349.076 225.249C354.042 228.263 341.077 234.586 341.077 234.586L341.127 235.54L341.35 239.712C341.35 239.712 341.441 239.825 341.607 240.051C344.495 243.956 370.595 281.447 346.593 331.611Z" fill="#FF6584"/>
<path d="M341.628 240.051C336.19 241.293 324.297 244.001 318.992 245.189L318.061 245.397C317.75 245.465 317.403 245.528 317.026 245.587C311.696 246.387 300.134 245.994 294.841 245.759C295.129 244.674 295.283 243.553 295.301 242.423C295.301 242.423 295.301 242.351 295.301 242.22C299.327 241.935 308.87 241.104 317.047 239.269C317.713 239.12 318.371 238.961 319.012 238.817C319.939 238.582 320.842 238.333 321.702 238.071C329.035 235.811 336.778 235.513 341.152 235.558L341.375 239.73C341.375 239.73 341.441 239.825 341.628 240.051Z" fill="#575988"/>
<path d="M318.971 238.799V245.189L318.04 245.397C317.73 245.465 317.382 245.528 317.005 245.587V239.287C317.672 239.12 318.33 238.961 318.971 238.799Z" fill="#FF6584"/>
<path opacity="0.1" d="M324.04 251.038C324.04 251.038 312.971 278.721 306.246 281.433C299.522 284.145 282.762 293.749 282.762 293.749C282.762 293.749 292.383 303.015 302.418 292.845C312.453 282.676 326.937 255.558 324.04 251.038Z" fill="black"/>
<path opacity="0.1" d="M336.145 247.318C336.145 247.318 337.179 257.827 335.731 259.747C334.282 261.668 336.145 247.318 336.145 247.318Z" fill="black"/>
<path opacity="0.1" d="M342.145 254.202C342.145 254.202 347.731 318.156 320.006 318.495C320.006 318.504 345.973 290.359 342.145 254.202Z" fill="black"/>
<path opacity="0.1" d="M349.18 269.569C349.18 269.569 357.146 303.128 346.697 306.969C346.697 306.978 352.18 289.578 349.18 269.569Z" fill="black"/>
<path opacity="0.1" d="M299.625 260.981C299.108 260.981 278.107 264.936 282.659 268.1C287.211 271.264 299.625 260.981 299.625 260.981Z" fill="black"/>
<path opacity="0.1" d="M314.109 215.68C314.109 215.68 331.282 232.29 327.972 234.098L314.109 215.68Z" fill="black"/>
<path opacity="0.1" d="M312.66 220.991C312.66 220.991 322.592 234.324 321.454 235.115L312.66 220.991Z" fill="black"/>
<path opacity="0.1" d="M333.869 218.948C333.869 218.948 338.42 225.163 337.696 226.519L333.869 218.948Z" fill="black"/>
<path opacity="0.1" d="M338.421 215.68C338.421 215.68 344.938 221.208 343.49 223.364L338.421 215.68Z" fill="black"/>
<path d="M302.211 148.337C302.211 148.337 323.42 150.145 322.489 168.788C321.557 187.432 305.729 192.178 305.729 192.178L285.141 185.737C285.141 185.737 294.349 149.58 302.211 148.337Z" fill="#FFC1C7"/>
<path opacity="0.1" d="M238.682 231.309C251.709 235.707 274.27 243.264 285.65 246.676C284.905 247.092 284.088 247.332 283.252 247.383C282.416 247.433 281.58 247.293 280.796 246.97L237.863 231.499L236.183 230.641C237.027 230.808 237.862 231.032 238.682 231.309Z" fill="black"/>
<path opacity="0.1" d="M311.336 185.227C309.321 188.164 307.546 191.328 307.612 193.308C307.645 194.732 306.784 198.361 305.634 202.659C302.67 213.454 298.647 223.868 293.633 233.719C292.305 228.747 290.004 222.912 286.184 220.123C283.014 217.814 280.494 212.72 279.174 206.799C280.18 202.514 281.136 198.912 281.529 198.053C282.563 195.794 284.426 182.912 284.426 182.912C284.601 179.648 284.992 176.402 285.597 173.2C287.099 165.367 289.652 160.092 291.998 156.703C294.829 152.581 297.378 151.162 297.378 151.162L303.482 150.145C310.517 149.887 313.91 155.731 315.545 162.135C317.548 170.095 315.872 178.61 311.336 185.227Z" fill="black"/>
<path d="M296.108 149.345C296.108 149.345 284.624 155.785 283.176 181.096C283.176 181.096 281.314 193.977 280.279 196.237C279.245 198.496 274.279 219.852 274.9 222.451C274.9 222.451 273.865 225.05 270.037 223.92C266.209 222.79 245.518 219.287 240.863 215.897L228.035 209.231C228.035 209.231 202.999 189.909 197.722 206.519C192.446 223.129 222.448 222.46 222.448 222.46L236.621 229.691L279.555 245.162C279.555 245.162 285.245 247.987 289.073 238.948C290.029 236.688 291.051 234.541 292.048 232.589C297.213 222.541 301.349 211.904 304.384 200.869C305.555 196.571 306.395 192.942 306.362 191.518C306.317 189.538 308.096 186.37 310.087 183.437C314.639 176.82 316.294 168.305 314.266 160.341C312.631 153.937 309.222 148.093 302.203 148.355L296.108 149.345Z" fill="#FFC1C7"/>
<path opacity="0.1" d="M152.376 114.362C150.853 115.194 150.154 117.761 149.873 120.69C149.604 120.69 149.335 120.69 149.066 120.69C143.502 120.701 138.13 118.474 133.974 114.434C134.23 111.37 134.305 108.789 134.305 108.789C134.305 108.789 156.514 112.102 152.376 114.362Z" fill="black"/>
<path d="M171.826 94.9274C171.826 99.8439 170.491 104.65 167.99 108.738C165.489 112.826 161.934 116.012 157.775 117.894C153.617 119.775 149.04 120.267 144.625 119.308C140.21 118.349 136.155 115.981 132.972 112.505C129.789 109.028 127.621 104.599 126.743 99.777C125.865 94.9549 126.315 89.9568 128.038 85.4145C129.761 80.8722 132.678 76.9899 136.421 74.2584C140.164 71.5269 144.564 70.069 149.066 70.069C155.098 70.0833 160.879 72.7069 165.145 77.3657C169.41 82.0244 171.812 88.3389 171.826 94.9274Z" fill="#FFC1C8"/>
<path opacity="0.1" d="M179.514 192.282C179.514 192.282 167.617 197.479 163.893 199.287C160.168 201.095 138.857 196.915 138.857 196.915C138.857 196.915 127.787 190.813 128.718 184.711C129.649 178.61 119.821 158.619 119.821 158.619C119.821 158.619 119.511 140.879 123.856 137.489C128.201 134.1 126.546 126.981 126.546 126.981C126.546 126.981 126.566 126.746 126.633 126.362C126.902 124.852 127.874 121.011 131.098 119.75C131.75 119.558 132.435 119.538 133.096 119.691C136.188 120.202 141.265 122.715 145.465 125.033C148.941 126.954 151.818 128.739 152.475 129.155L152.616 129.241C152.616 129.241 154.168 133.196 156.03 131.953C157.892 130.71 167.203 136.472 168.962 139.071C170.721 141.67 169.479 153.873 169.169 156.924C168.859 159.975 170.928 169.014 173.204 174.203C175.48 179.392 179.514 192.282 179.514 192.282Z" fill="black"/>
<path d="M179.514 190.926C179.514 190.926 167.617 196.124 163.893 197.931C160.168 199.739 138.857 195.559 138.857 195.559C138.857 195.559 127.787 189.457 128.718 183.355C129.649 177.254 119.821 157.263 119.821 157.263C119.821 157.263 119.511 139.523 123.856 136.134C128.201 132.744 126.546 125.625 126.546 125.625C126.546 125.625 126.566 125.39 126.633 125.006C126.902 123.496 127.874 119.655 131.098 118.394C131.75 118.202 132.435 118.182 133.096 118.335C136.188 118.846 141.265 121.359 145.465 123.677C148.941 125.598 151.818 127.383 152.475 127.799L152.616 127.885C152.616 127.885 154.168 131.84 156.03 130.597C157.892 129.354 167.203 135.117 168.962 137.715C170.721 140.314 169.479 152.517 169.169 155.568C168.859 158.619 170.928 167.658 173.204 172.847C175.48 178.036 179.514 190.926 179.514 190.926Z" fill="#DCE6F2"/>
<path d="M140.996 173.57C140.996 173.57 130.787 191.649 129.132 192.63L129.753 198.957C129.753 198.957 144.307 195.64 145.205 191.197C146.103 186.754 145.618 173.344 145.618 173.344L140.996 173.57Z" fill="#575988"/>
<path opacity="0.2" d="M140.996 173.57C140.996 173.57 130.787 191.649 129.132 192.63L129.753 198.957C129.753 198.957 144.307 195.64 145.205 191.197C146.103 186.754 145.618 173.344 145.618 173.344L140.996 173.57Z" fill="black"/>
<path opacity="0.1" d="M155.36 150.538C155.36 150.538 157.168 158.167 160.015 160.766C162.862 163.365 155.36 150.538 155.36 150.538Z" fill="black"/>
<path d="M137.615 170.651C137.876 171.161 146.616 184.155 155.823 188.955C165.031 193.755 185.569 199.409 185.569 199.409C185.569 199.409 202.225 202.799 205.068 204.096C207.911 205.393 211.536 199.577 193.688 191.274C175.84 182.971 172.376 179.297 172.376 179.297C172.376 179.297 156.858 171.039 154.375 166.971C151.892 162.904 137.615 170.651 137.615 170.651Z" fill="#FFC1C8"/>
<path opacity="0.1" d="M144.133 233.863C144.443 233.637 151.892 224.937 152.823 228.665C153.754 232.394 144.133 233.863 144.133 233.863Z" fill="black"/>
<path opacity="0.1" d="M148.478 216.688C148.375 217.027 147.34 226.632 144.34 227.762L148.478 216.688Z" fill="black"/>
<path opacity="0.1" d="M151.582 219.296C151.582 219.296 148.892 229.578 145.478 230.247L151.582 219.296Z" fill="black"/>
<path opacity="0.1" d="M137.926 250.134C137.926 250.134 142.478 250.247 143.098 247.083L137.926 250.134Z" fill="black"/>
<path opacity="0.1" d="M144.133 270.708C144.754 270.821 154.478 277.6 151.995 278.956C149.513 280.312 144.133 270.708 144.133 270.708Z" fill="black"/>
<path opacity="0.1" d="M145.014 327.936V328.98C144.965 330.571 144.944 331.633 144.944 331.633L129.128 339.868L129.057 328.985C129.057 328.985 129.057 328.935 129.057 328.84V328.104L135.389 328.325L145.014 327.936Z" fill="black"/>
<path d="M147.973 343.76L134.781 349.274L128.859 345.45L128.921 340.216L129.058 328.98L135.389 329.202L145.014 328.836V336.704L147.973 343.76Z" fill="#FF748F"/>
<path opacity="0.1" d="M147.961 343.764L134.768 349.278L128.846 345.455L128.909 340.221C129.768 341.451 130.866 342.457 132.124 343.169C133.381 343.88 134.768 344.278 136.183 344.334C136.183 344.334 140.826 338.006 143.653 336.171C143.854 336.04 144.077 335.954 144.309 335.92C144.541 335.886 144.776 335.904 145.002 335.972V336.709L147.961 343.764Z" fill="black"/>
<path d="M136.196 345.233C136.196 345.233 130.816 345.31 128.118 339.719C128.118 339.719 124.282 343.764 124.212 352.293C124.141 360.822 124.282 361.115 124.282 361.115C124.282 361.115 139.763 360.456 142.66 361.631C145.556 362.806 169.856 360.6 169.856 360.6C169.856 360.6 171.47 355.967 164.133 354.349C156.796 352.731 150.737 344.203 150.535 343.837C150.332 343.471 146.496 335.249 143.669 337.057C140.843 338.865 136.196 345.233 136.196 345.233Z" fill="#5D618C"/>
<path opacity="0.1" d="M150.464 67.4656L148.921 67.2351L149.885 67.208L150.464 67.4656Z" fill="black"/>
<path opacity="0.1" d="M171.826 94.9274C171.826 96.8555 171.622 98.7771 171.217 100.654C170.872 100.556 170.541 100.404 170.237 100.202C169.794 99.89 169.351 99.4606 168.83 99.5103C168.524 99.5628 168.237 99.7067 168.002 99.9261C165.552 101.883 163.731 105.101 160.752 105.725C161.05 104.772 161.091 103.746 160.868 102.769C160.236 103.463 159.461 103.981 158.607 104.28C157.754 104.579 156.848 104.65 155.964 104.487C156.179 103.922 156.204 103.293 156.034 102.71C153.936 103.994 151.752 105.101 149.5 106.023C149.422 105.571 149.347 105.155 149.268 104.722C146.099 106.412 146.347 112.147 143.177 113.838C141.29 114.846 138.625 114.123 137.321 115.939C137.272 116.012 137.226 116.084 137.181 116.161C133.794 113.898 131.008 110.707 129.099 106.904C127.191 103.101 126.226 98.8193 126.301 94.4835C126.377 90.1477 127.489 85.9088 129.529 82.1879C131.568 78.467 134.463 75.3935 137.926 73.2727C141.39 71.1518 145.301 70.0574 149.271 70.098C153.241 70.1387 157.133 71.3131 160.559 73.5046C163.985 75.6961 166.827 78.8284 168.802 82.5904C170.777 86.3525 171.817 90.6134 171.817 94.9499L171.826 94.9274Z" fill="black"/>
<path d="M150.464 66.5572C148.552 65.6939 146.612 64.8261 144.555 64.5685C142.498 64.3109 140.28 64.7493 138.728 66.2453C137.487 67.4385 136.514 69.3549 134.859 69.4091C134.052 69.4408 133.307 68.9978 132.583 68.6136C130.514 67.5289 127.928 66.9142 126.061 68.3515C124.572 69.504 124.013 71.6192 123.769 73.5944C123.525 75.5695 123.467 77.6621 122.606 79.4022C122.072 80.4869 121.261 81.3728 120.591 82.3626C118.887 84.8775 118.086 87.9874 118.34 91.1037C118.512 92.6448 118.814 94.1652 119.242 95.646L120.93 102.159C121.787 105.467 122.66 108.821 124.29 111.763C125.921 114.706 128.428 117.237 131.491 117.996C133.336 118.448 135.571 118.077 136.606 116.346C136.87 115.894 137.04 115.411 137.33 114.99C138.613 113.182 141.298 113.901 143.185 112.893C146.355 111.203 146.107 105.467 149.277 103.777L149.513 105.074C151.762 104.151 153.945 103.045 156.043 101.766C156.212 102.348 156.188 102.977 155.976 103.542C156.859 103.703 157.765 103.631 158.617 103.332C159.469 103.033 160.244 102.517 160.876 101.824C161.099 102.801 161.059 103.828 160.76 104.78C163.74 104.152 165.56 100.934 168.01 98.977C168.247 98.7608 168.533 98.6187 168.838 98.5657C169.363 98.516 169.802 98.9454 170.245 99.2527C171.012 99.7613 171.914 99.9707 172.804 99.8467C173.694 99.7228 174.519 99.2728 175.144 98.5703C176.448 97.0245 176.506 94.6472 176.088 92.5952C175.67 90.5433 174.846 88.5862 174.669 86.4936C174.408 83.6417 175.318 80.6632 174.482 77.9514C173.775 75.6508 171.921 73.9831 169.93 72.8893C167.94 71.7955 165.792 71.1582 163.76 70.1775C161.832 69.2328 160.036 67.9673 158.033 67.2216C155.136 66.1414 151.987 66.2272 148.929 66.3176" fill="#794F6A"/>
<path d="M150.857 150.746C150.857 150.746 154.168 126.416 125.821 127.618L111.545 129.693C111.545 129.693 125.163 132.369 128.441 132.762L128.788 132.816C131.822 133.422 142.308 132.667 150.857 150.746Z" fill="#6C63FF"/>
<path opacity="0.1" d="M132.753 247.77V247.49C144.377 236.512 132.753 247.77 132.753 247.77Z" fill="black"/>
<path d="M107.746 248.624C106.08 248.787 104.404 248.787 102.739 248.624L67.9159 193.267C68.5573 191.432 70.0926 190.338 71.5616 189.692L107.746 248.624Z" fill="#575988"/>
<path d="M85.1638 189.353L83.5085 191.5C83.5085 191.5 70.9533 168.721 68.2552 157.15C68.7683 155.835 69.5422 155.555 69.5422 155.555C69.5422 155.555 70.8498 154.502 72.9562 152.843C73.7383 158.285 76.4074 171.591 85.1638 189.353Z" fill="#575988"/>
<path d="M94.3712 182.338L91.0607 184.372C82.0229 172.82 81.2532 153.412 81.3359 145.679L83.7195 143.808C84.0423 153.964 94.3712 182.338 94.3712 182.338Z" fill="#575988"/>
<path opacity="0.1" d="M103.061 180.314C102.958 181.783 99.1302 196.698 104.717 199.183C110.303 201.669 103.061 180.314 103.061 180.314Z" fill="black"/>
<path opacity="0.1" d="M115.062 205.963C115.269 206.754 117.131 232.516 121.166 230.482C125.201 228.448 123.028 199.07 123.028 199.07L115.062 205.963Z" fill="black"/>
<path opacity="0.1" d="M307.417 104.419C307.426 111.734 304.832 118.767 300.184 124.034C298.29 124.472 296.338 124.509 294.432 124.143C293.457 124.008 292.531 123.602 291.742 122.963C290.982 122.197 290.387 121.257 290 120.211C288.489 116.663 287.715 112.563 285.597 109.526C283.478 106.489 279.178 105.155 277.134 108.27C276.021 109.96 275.835 112.559 274.349 113.729C272.566 115.139 270.211 113.481 268.825 111.469C264.728 105.594 266.131 94.0415 258.318 92.4189L258.003 92.3602C260.509 86.5255 264.761 81.7984 270.058 78.9592C275.355 76.12 281.38 75.3385 287.138 76.7438C292.897 78.149 298.044 81.657 301.731 86.6885C305.418 91.72 307.424 97.9743 307.417 104.419Z" fill="black"/>
<path d="M258.732 91.9986C257.465 91.7319 255.996 91.7681 255.148 90.5749C254.647 89.8698 254.502 88.8935 254.382 87.967C253.873 83.9626 253.596 79.6643 255.057 76.035C257.453 70.0825 263.619 68.0939 268.978 68.5368C274.337 68.9797 279.596 71.1628 284.955 70.7967C288.895 70.5164 292.781 68.8532 296.708 69.3278C299.815 69.7074 302.712 71.3933 305.505 73.1153C308.121 74.7243 310.794 76.4553 312.648 79.2485C315.371 83.3388 315.884 88.9885 315.959 94.2901C316.05 100.514 315.648 106.977 313.256 112.455C309.789 120.405 302.054 125.137 294.846 123.713C293.871 123.579 292.945 123.172 292.156 122.534C291.398 121.767 290.805 120.827 290.418 119.781C288.903 116.229 288.129 112.134 286.011 109.092C283.892 106.05 279.592 104.726 277.548 107.84C276.435 109.526 276.249 112.129 274.763 113.3C272.979 114.706 270.625 113.047 269.238 111.04C265.142 105.16 266.545 93.6166 258.732 91.9986Z" fill="#945B79"/>
<path d="M321.706 78.8598C325.65 80.9163 328.386 84.9207 330.955 88.776C333.095 91.9805 335.309 95.4065 335.59 99.3567C335.702 100.975 335.482 102.62 335.764 104.211C336.753 109.829 343.213 112.346 345.1 117.698C345.977 120.22 345.7 123.026 345.315 125.693C344.762 129.55 344.017 133.372 343.084 137.141C342.526 139.401 341.893 141.752 342.319 144.048C342.646 145.828 343.56 147.392 344.289 149.019C346.188 153.408 346.515 158.384 346.66 163.234C346.805 168.083 346.8 173.019 348.129 177.647C349.457 182.275 352.387 186.65 356.612 188.146C355.193 189.203 353.548 189.841 351.837 189.999C351.584 191.513 352.375 193.055 353.492 194.013C354.609 194.971 355.975 195.468 357.307 195.943C356.398 196.644 355.352 197.105 354.252 197.29C353.152 197.475 352.028 197.379 350.968 197.009C349.201 196.377 347.74 195.021 346.329 193.692L338.396 186.239C337.336 185.302 336.357 184.261 335.47 183.129C330.339 176.165 333.401 165.611 330.537 157.245C328.203 150.443 321.93 144.92 322.505 137.684C322.662 135.659 323.374 133.743 323.97 131.808C326.084 124.79 326.747 117.347 325.914 110.016C325.08 102.684 322.77 95.6448 319.149 89.4043C318.243 87.8676 317.192 86.3218 315.681 85.5309C313.385 84.3332 310.103 84.8484 308.799 82.4575C308.108 81.1965 307.972 78.9773 307.91 77.5627C312.122 76.5096 317.767 76.8034 321.706 78.8598Z" fill="#945B79"/>
<path opacity="0.1" d="M120.181 155.383C122.118 141.48 138.029 136.459 146.475 147.085C148.917 150.167 151.081 153.543 152.306 156.92C156.444 168.332 156.754 169.349 156.754 169.349C156.754 169.349 131.201 174.772 131.408 178.84L119.821 158.615C119.821 158.615 119.908 157.349 120.181 155.383Z" fill="black"/>
<path d="M120.181 154.027C122.118 140.124 138.029 135.103 146.475 145.729C148.917 148.811 151.081 152.188 152.306 155.564C156.444 166.976 156.754 167.993 156.754 167.993C156.754 167.993 131.201 173.417 131.408 177.484L119.821 157.259C119.821 157.259 119.908 155.993 120.181 154.027Z" fill="#DCE6F2"/>
<path opacity="0.1" d="M127.373 136.188C127.684 136.753 139.891 153.024 146.305 155.342C152.72 157.661 127.373 136.188 127.373 136.188Z" fill="black"/>
<path opacity="0.1" d="M74.9218 188.788C74.9218 188.788 107.2 230.369 111.338 247.205L74.9218 188.788Z" fill="black"/>
<path opacity="0.1" d="M76.1633 150.371C76.1633 150.371 83.1982 190.144 96.8542 206.867C110.51 223.59 124.58 252.064 124.58 252.064" stroke="black" stroke-width="2" stroke-miterlimit="10"/>
<g opacity="0.1">
<path opacity="0.1" d="M175.898 92.5048C175.925 93.8267 175.507 95.1137 174.722 96.1206C174.097 96.8231 173.272 97.2731 172.382 97.397C171.492 97.521 170.59 97.3116 169.823 96.803C169.38 96.4957 168.941 96.0663 168.416 96.116C168.111 96.169 167.825 96.3111 167.588 96.5273C165.258 98.3895 163.495 101.391 160.76 102.218C160.857 103.016 160.783 103.828 160.545 104.59C163.524 103.962 165.345 100.744 167.795 98.7872C168.032 98.571 168.318 98.4289 168.623 98.3759C169.148 98.3262 169.587 98.7556 170.03 99.0629C170.797 99.5715 171.699 99.7809 172.589 99.6569C173.479 99.5329 174.304 99.0829 174.929 98.3804C176.208 96.8437 176.287 94.5296 175.898 92.5048Z" fill="black"/>
<path opacity="0.1" d="M174.247 84.0258C174.28 84.3965 174.338 84.7626 174.404 85.1286C174.404 82.8688 174.898 80.5185 174.404 78.3491C174.412 80.1931 174.072 82.1456 174.247 84.0258Z" fill="black"/>
<path opacity="0.1" d="M160.462 99.3567C159.83 100.049 159.055 100.566 158.203 100.864C157.351 101.163 156.445 101.235 155.563 101.074C155.774 100.509 155.798 99.8802 155.629 99.2979C153.531 100.577 151.348 101.683 149.099 102.606L148.863 101.309C145.693 103 145.941 108.735 142.771 110.425C140.884 111.433 138.219 110.706 136.916 112.523C136.626 112.934 136.457 113.427 136.192 113.878C135.157 115.61 132.923 115.985 131.077 115.528C128.006 114.769 125.503 112.238 123.876 109.296C122.25 106.353 121.373 103 120.516 99.6911L118.828 93.1782C118.551 92.0935 118.269 91.0088 118.087 89.9015C118.087 90.2359 118.087 90.5659 118.133 90.8958C118.306 92.4368 118.607 93.9573 119.035 95.4381L120.723 101.951C121.58 105.259 122.453 108.613 124.083 111.555C125.714 114.498 128.222 117.029 131.284 117.788C133.129 118.24 135.364 117.869 136.399 116.138C136.663 115.686 136.833 115.203 137.123 114.782C138.406 112.975 141.091 113.693 142.978 112.685C146.148 110.995 145.9 105.259 149.07 103.569L149.306 104.866C151.551 103.942 153.729 102.836 155.823 101.558C155.992 102.14 155.969 102.769 155.757 103.334C156.597 103.486 157.457 103.427 158.273 103.162C159.089 102.898 159.839 102.434 160.466 101.806C160.643 101.001 160.641 100.161 160.462 99.3567Z" fill="black"/>
</g>
<path opacity="0.1" d="M152.475 129.155C150.249 130.556 145.076 133.675 144.029 133.141C142.912 132.577 130.721 127.917 126.649 126.362C126.918 124.852 127.891 121.011 131.114 119.75C131.767 119.558 132.452 119.538 133.113 119.691L145.478 125.033C148.941 126.954 151.817 128.739 152.475 129.155Z" fill="black"/>
<path d="M152.475 127.799C150.249 129.2 145.076 132.319 144.029 131.786C142.912 131.221 130.721 126.561 126.649 125.006C126.918 123.496 127.891 119.655 131.114 118.394C131.767 118.202 132.452 118.182 133.113 118.335L145.478 123.677C148.941 125.598 151.817 127.383 152.475 127.799Z" fill="#DCE6F2"/>
<path opacity="0.1" d="M315.971 93.7522C315.851 98.846 315.218 103.94 313.277 108.392C309.809 116.342 302.075 121.074 294.866 119.65C293.892 119.515 292.966 119.109 292.176 118.471C291.419 117.703 290.826 116.764 290.438 115.718C288.924 112.166 288.15 108.071 286.031 105.029C283.912 101.987 279.613 100.663 277.569 103.777C276.455 105.463 276.269 108.066 274.784 109.237C273 110.642 270.645 108.984 269.259 106.977C265.162 101.101 266.565 89.5444 258.752 87.9263C257.486 87.6597 256.017 87.6958 255.169 86.5026C254.668 85.7976 254.523 84.8213 254.403 83.8948C254.262 82.8055 254.142 81.6937 254.072 80.5773C253.928 83.0448 254.039 85.5222 254.403 87.9625C254.523 88.889 254.668 89.8653 255.169 90.5704C256.017 91.7636 257.486 91.7274 258.752 91.9941C266.565 93.6121 265.162 105.155 269.259 111.045C270.641 113.029 272.983 114.688 274.784 113.304C276.269 112.134 276.439 109.531 277.569 107.845C279.613 104.731 283.912 106.059 286.031 109.097C288.15 112.134 288.928 116.233 290.438 119.786C290.826 120.831 291.419 121.771 292.176 122.538C292.966 123.177 293.892 123.583 294.866 123.718C302.075 125.142 309.809 120.409 313.277 112.459C315.669 106.981 316.07 100.518 315.979 94.2946C315.971 94.0957 315.971 93.915 315.971 93.7522Z" fill="black"/>
<g opacity="0.1">
<path opacity="0.1" d="M343.031 115.447C343.908 117.969 343.631 120.776 343.246 123.442C342.692 127.297 341.948 131.115 341.015 134.882C340.457 137.141 339.823 139.492 340.25 141.788C340.577 143.568 341.491 145.132 342.219 146.759C344.119 151.148 344.446 156.124 344.591 160.974C344.735 165.823 344.731 170.759 346.06 175.387C346.92 178.541 348.565 181.373 350.81 183.568C349.624 181.832 348.717 179.888 348.129 177.819C346.8 173.191 346.8 168.255 346.66 163.405C346.519 158.556 346.188 153.58 344.289 149.195C343.577 147.555 342.633 145.991 342.319 144.224C341.905 141.928 342.526 139.573 343.084 137.313C344.018 133.537 344.762 129.707 345.315 125.842C345.7 123.176 345.977 120.364 345.1 117.842C344.392 115.822 343.031 114.227 341.553 112.676C342.172 113.512 342.67 114.447 343.031 115.447Z" fill="black"/>
<path opacity="0.1" d="M356.612 188.327C355.506 187.928 354.466 187.335 353.533 186.573C352.362 187.239 351.082 187.644 349.767 187.767C349.515 189.281 350.305 190.822 351.423 191.78C351.645 191.975 351.88 192.152 352.126 192.309C351.838 191.646 351.742 190.904 351.849 190.18C353.555 190.016 355.195 189.378 356.612 188.327Z" fill="black"/>
<path opacity="0.1" d="M313.6 83.3072C312.023 82.4846 309.983 82.4665 308.435 81.766C308.523 82.0801 308.641 82.3831 308.787 82.6699C310.091 85.0563 313.372 84.5411 315.669 85.7433C315.959 85.9023 316.236 86.0883 316.496 86.2992C315.779 85.0498 314.782 84.0203 313.6 83.3072Z" fill="black"/>
<path opacity="0.1" d="M353.889 194.542C352.304 195.28 350.528 195.371 348.886 194.799C347.119 194.167 345.658 192.811 344.247 191.482L336.314 184.029C335.938 183.676 335.565 183.319 335.201 182.958C335.284 183.08 335.367 183.206 335.458 183.328C336.343 184.461 337.322 185.502 338.383 186.438L346.316 193.895C347.727 195.22 349.188 196.58 350.955 197.213C352.016 197.582 353.14 197.677 354.24 197.491C355.34 197.305 356.386 196.843 357.295 196.142C356.097 195.783 354.951 195.245 353.889 194.542Z" fill="black"/>
<path opacity="0.1" d="M328.886 86.5207C331.026 89.7252 333.24 93.1511 333.521 97.1013C333.633 98.7194 333.413 100.365 333.695 101.956C334.142 104.5 335.718 106.412 337.481 108.233C336.629 107.117 336.04 105.791 335.764 104.369C335.482 102.774 335.702 101.128 335.59 99.5103C335.309 95.5601 333.107 92.1342 330.955 88.9342C329.399 86.5975 327.777 84.2111 325.87 82.2315C326.933 83.6055 327.922 85.0699 328.886 86.5207Z" fill="black"/>
</g>
<path opacity="0.1" d="M310.732 77.1514C310.732 77.1514 308.249 81.6711 315.284 85.436L315.698 84.2292L310.732 77.1514Z" fill="black"/>
<path d="M310.318 77.1514C310.318 77.1514 307.835 81.6711 314.87 85.436L315.284 84.2292L310.318 77.1514Z" fill="#FF6584"/>
<path d="M408.273 332.962C408.273 332.962 410.549 336.212 407.226 341.098C403.903 345.983 401.164 350.137 402.26 353.197C402.26 353.197 407.276 344.09 411.364 343.963C415.453 343.837 412.763 338.44 408.273 332.962Z" fill="#6C63FF"/>
<path opacity="0.1" d="M408.273 332.962C408.472 333.276 408.629 333.618 408.741 333.979C412.722 339.091 414.84 343.859 411.013 343.977C407.45 344.09 403.175 351.05 402.149 352.808C402.182 352.944 402.223 353.075 402.269 353.21C402.269 353.21 407.284 344.103 411.373 343.977C415.461 343.85 412.763 338.44 408.273 332.962Z" fill="black"/>
<path d="M412.502 337.102C412.502 338.246 412.382 339.172 412.237 339.172C412.093 339.172 411.977 338.268 411.977 337.102C411.977 335.936 412.122 336.497 412.266 336.497C412.411 336.497 412.502 335.959 412.502 337.102Z" fill="#FFD037"/>
<path d="M413.951 338.467C413.032 339.014 412.229 339.344 412.163 339.204C412.097 339.064 412.78 338.508 413.698 337.961C414.617 337.414 414.257 337.812 414.327 337.961C414.398 338.11 414.873 337.92 413.951 338.467Z" fill="#FFD037"/>
<path d="M396.252 332.962C396.252 332.962 393.976 336.212 397.299 341.098C400.622 345.983 403.361 350.137 402.264 353.197C402.264 353.197 397.253 344.09 393.16 343.963C389.068 343.837 391.778 338.44 396.252 332.962Z" fill="#6C63FF"/>
<path opacity="0.1" d="M396.252 332.962C396.053 333.276 395.896 333.618 395.784 333.979C391.803 339.091 389.684 343.859 393.512 343.977C397.075 344.09 401.35 351.05 402.376 352.808C402.342 352.945 402.301 353.079 402.252 353.21C402.252 353.21 397.241 344.103 393.148 343.977C389.055 343.85 391.778 338.44 396.252 332.962Z" fill="black"/>
<path d="M392.039 337.102C392.039 338.246 392.159 339.172 392.304 339.172C392.449 339.172 392.565 338.268 392.565 337.102C392.565 335.936 392.42 336.497 392.275 336.497C392.13 336.497 392.039 335.959 392.039 337.102Z" fill="#FFD037"/>
<path d="M390.591 338.467C391.509 339.014 392.308 339.344 392.378 339.204C392.449 339.064 391.762 338.508 390.843 337.961C389.924 337.414 390.284 337.812 390.214 337.961C390.144 338.11 389.672 337.92 390.591 338.467Z" fill="#FFD037"/>
<path d="M392.763 352.786C392.763 352.786 399.119 352.569 401.04 351.082C402.96 349.595 410.818 347.809 411.294 350.178C411.77 352.546 420.845 362.06 413.669 362.123C406.494 362.187 396.997 360.903 395.085 359.633C393.173 358.363 392.763 352.786 392.763 352.786Z" fill="#A8A8A8"/>
<path opacity="0.2" d="M413.793 361.319C406.618 361.382 397.121 360.098 395.209 358.828C393.752 357.857 393.173 354.381 392.978 352.781H392.763C392.763 352.781 393.177 358.381 395.081 359.656C396.984 360.93 406.49 362.209 413.665 362.146C415.734 362.146 416.45 361.323 416.413 360.13C416.115 360.867 415.333 361.319 413.793 361.319Z" fill="black"/>
<path d="M108.685 344.817C109.445 344.142 109.999 343.231 110.274 342.205C110.477 341.165 110.072 339.918 109.165 339.538C108.147 339.113 107.059 339.886 106.235 340.664C105.412 341.441 104.464 342.331 103.384 342.164C103.94 341.615 104.355 340.918 104.59 340.141C104.825 339.363 104.872 338.533 104.725 337.73C104.678 337.398 104.549 337.086 104.353 336.826C103.79 336.167 102.764 336.451 102.085 336.971C99.933 338.621 99.3329 341.816 99.3247 344.686C99.1053 343.651 99.2874 342.571 99.2833 341.522C99.2792 340.474 99.0102 339.263 98.1908 338.711C97.6847 338.405 97.114 338.249 96.5355 338.259C95.5672 338.219 94.4913 338.327 93.8292 339.1C93.0015 340.058 93.2209 341.672 93.9368 342.716C94.6527 343.76 95.7369 344.438 96.7342 345.165C97.5368 345.687 98.2214 346.399 98.737 347.249C98.7973 347.369 98.8472 347.494 98.886 347.624H104.924C106.288 346.879 107.553 345.934 108.685 344.817Z" fill="#6C63FF"/>
<path d="M60.5043 351.945C60.5043 351.945 54.7109 330.386 61.5927 314.513C64.5267 307.877 65.4124 300.38 64.117 293.148C63.474 289.72 62.546 286.363 61.3444 283.119" stroke="#535461" stroke-width="2" stroke-miterlimit="10"/>
<path d="M65.644 273.09C65.644 275.729 61.2617 283.395 61.2617 283.395C61.2617 283.395 56.8793 275.711 56.8793 273.09C56.8793 271.82 57.341 270.603 58.1629 269.705C58.9847 268.808 60.0994 268.303 61.2617 268.303C62.4239 268.303 63.5386 268.808 64.3604 269.705C65.1823 270.603 65.644 271.82 65.644 273.09Z" fill="#6C63FF"/>
<path d="M72.8858 287.724C71.5699 289.944 64.0798 293.776 64.0798 293.776C64.0798 293.776 64.2122 284.737 65.5281 282.527C66.1712 281.491 67.16 280.772 68.2828 280.523C69.4056 280.274 70.573 280.515 71.535 281.194C72.497 281.874 73.1771 282.938 73.4296 284.159C73.6821 285.379 73.4869 286.659 72.8858 287.724Z" fill="#6C63FF"/>
<path d="M72.5672 312.741C70.407 313.93 62.1679 313.107 62.1679 313.107C62.1679 313.107 66.4633 305.387 68.6235 304.194C69.1386 303.896 69.7031 303.714 70.2837 303.657C70.8643 303.6 71.4495 303.67 72.0049 303.864C72.5604 304.057 73.0749 304.369 73.5184 304.782C73.962 305.196 74.3255 305.701 74.5879 306.27C74.8503 306.839 75.0061 307.459 75.0463 308.094C75.0866 308.729 75.0104 309.367 74.8222 309.969C74.634 310.572 74.3376 311.127 73.9504 311.603C73.5632 312.079 73.0929 312.466 72.5672 312.741Z" fill="#6C63FF"/>
<path d="M68.4248 331.606C66.4799 333.179 58.2325 333.866 58.2325 333.866C58.2325 333.866 61.2699 325.464 63.1983 323.891C63.6574 323.48 64.1882 323.175 64.7584 322.995C65.3287 322.815 65.9265 322.763 66.5157 322.843C67.1048 322.923 67.6729 323.132 68.1856 323.459C68.6983 323.786 69.1448 324.223 69.4981 324.744C69.8515 325.265 70.1041 325.859 70.2409 326.49C70.3777 327.121 70.3956 327.776 70.2937 328.415C70.1918 329.053 69.9721 329.663 69.648 330.206C69.3239 330.749 68.9021 331.215 68.4083 331.575L68.4248 331.606Z" fill="#6C63FF"/>
<path d="M54.8806 294.287C56.6145 296.131 64.7005 298.038 64.7005 298.038C64.7005 298.038 62.7183 289.266 60.9761 287.422C60.5671 286.965 60.0784 286.602 59.539 286.355C58.9996 286.108 58.4204 285.981 57.8354 285.983C57.2505 285.984 56.6717 286.113 56.1332 286.362C55.5947 286.612 55.1073 286.976 54.6998 287.435C54.2923 287.893 53.9729 288.436 53.7605 289.031C53.5481 289.626 53.447 290.262 53.4631 290.901C53.4792 291.539 53.6121 292.168 53.8542 292.749C54.0962 293.331 54.4424 293.854 54.8723 294.287H54.8806Z" fill="#6C63FF"/>
<path d="M50.2996 316.42C52.4597 317.609 60.6988 316.791 60.6988 316.791C60.6988 316.791 56.4076 309.066 54.2433 307.878C53.7297 307.595 53.1702 307.425 52.5967 307.379C52.0231 307.332 51.4468 307.409 50.9005 307.606C50.3543 307.803 49.8489 308.115 49.4131 308.525C48.9774 308.935 48.6198 309.434 48.3609 309.995C48.1019 310.556 47.9466 311.167 47.9039 311.794C47.8612 312.42 47.9319 313.05 48.1119 313.646C48.292 314.243 48.5778 314.795 48.9532 315.271C49.3285 315.747 49.7861 316.137 50.2996 316.42Z" fill="#6C63FF"/>
<path d="M48.5368 338.603C50.4817 340.171 58.7291 340.863 58.7291 340.863C58.7291 340.863 55.6917 332.456 53.7633 330.883C52.8274 330.201 51.6873 329.939 50.5791 330.15C49.4708 330.361 48.4793 331.029 47.8097 332.016C47.1402 333.004 46.844 334.234 46.9824 335.454C47.1208 336.673 47.6833 337.788 48.5533 338.567L48.5368 338.603Z" fill="#6C63FF"/>
<path d="M65.644 273.09C65.644 275.729 61.2617 283.395 61.2617 283.395C61.2617 283.395 56.8793 275.711 56.8793 273.09C56.8793 271.82 57.341 270.603 58.1629 269.705C58.9847 268.808 60.0994 268.303 61.2617 268.303C62.4239 268.303 63.5386 268.808 64.3604 269.705C65.1823 270.603 65.644 271.82 65.644 273.09Z" fill="#6C63FF"/>
<path d="M72.8858 287.724C71.5699 289.944 64.0798 293.776 64.0798 293.776C64.0798 293.776 64.2122 284.737 65.5281 282.527C66.1712 281.491 67.16 280.772 68.2828 280.523C69.4056 280.274 70.573 280.515 71.535 281.194C72.497 281.874 73.1771 282.938 73.4296 284.159C73.6821 285.379 73.4869 286.659 72.8858 287.724Z" fill="#6C63FF"/>
<path d="M72.5672 312.741C70.407 313.93 62.1679 313.107 62.1679 313.107C62.1679 313.107 66.4633 305.387 68.6235 304.194C69.1386 303.896 69.7031 303.714 70.2837 303.657C70.8643 303.6 71.4495 303.67 72.0049 303.864C72.5604 304.057 73.0749 304.369 73.5184 304.782C73.962 305.196 74.3255 305.701 74.5879 306.27C74.8503 306.839 75.0061 307.459 75.0463 308.094C75.0866 308.729 75.0104 309.367 74.8222 309.969C74.634 310.572 74.3376 311.127 73.9504 311.603C73.5632 312.079 73.0929 312.466 72.5672 312.741Z" fill="#6C63FF"/>
<path d="M68.4248 331.606C66.4799 333.179 58.2325 333.866 58.2325 333.866C58.2325 333.866 61.2699 325.464 63.1983 323.891C63.6574 323.48 64.1882 323.175 64.7584 322.995C65.3287 322.815 65.9265 322.763 66.5157 322.843C67.1048 322.923 67.6729 323.132 68.1856 323.459C68.6983 323.786 69.1448 324.223 69.4981 324.744C69.8515 325.265 70.1041 325.859 70.2409 326.49C70.3777 327.121 70.3956 327.776 70.2937 328.415C70.1918 329.053 69.9721 329.663 69.648 330.206C69.3239 330.749 68.9021 331.215 68.4083 331.575L68.4248 331.606Z" fill="#6C63FF"/>
<path d="M54.8806 294.287C56.6145 296.131 64.7005 298.038 64.7005 298.038C64.7005 298.038 62.7183 289.266 60.9761 287.422C60.5671 286.965 60.0784 286.602 59.539 286.355C58.9996 286.108 58.4204 285.981 57.8354 285.983C57.2505 285.984 56.6717 286.113 56.1332 286.362C55.5947 286.612 55.1073 286.976 54.6998 287.435C54.2923 287.893 53.9729 288.436 53.7605 289.031C53.5481 289.626 53.447 290.262 53.4631 290.901C53.4792 291.539 53.6121 292.168 53.8542 292.749C54.0962 293.331 54.4424 293.854 54.8723 294.287H54.8806Z" fill="#6C63FF"/>
<path d="M50.2996 316.42C52.4597 317.609 60.6988 316.791 60.6988 316.791C60.6988 316.791 56.4076 309.066 54.2433 307.878C53.7297 307.595 53.1702 307.425 52.5967 307.379C52.0231 307.332 51.4468 307.409 50.9005 307.606C50.3543 307.803 49.8489 308.115 49.4131 308.525C48.9774 308.935 48.6198 309.434 48.3609 309.995C48.1019 310.556 47.9466 311.167 47.9039 311.794C47.8612 312.42 47.9319 313.05 48.1119 313.646C48.292 314.243 48.5778 314.795 48.9532 315.271C49.3285 315.747 49.7861 316.137 50.2996 316.42Z" fill="#6C63FF"/>
<path d="M48.5368 338.603C50.4817 340.171 58.7291 340.863 58.7291 340.863C58.7291 340.863 55.6917 332.456 53.7633 330.883C52.8274 330.201 51.6873 329.939 50.5791 330.15C49.4708 330.361 48.4793 331.029 47.8097 332.016C47.1402 333.004 46.844 334.234 46.9824 335.454C47.1208 336.673 47.6833 337.788 48.5533 338.567L48.5368 338.603Z" fill="#6C63FF"/>
<path d="M46.7615 350.589C46.7615 350.589 53.8419 349.052 55.7289 347.005C57.6159 344.958 66.1158 341.373 67.0593 343.932C68.0028 346.49 79.8049 355.195 71.7809 356.731C63.757 358.268 52.8984 358.779 50.5355 357.753C48.1726 356.727 46.7615 350.589 46.7615 350.589Z" fill="#A8A8A8"/>
<path opacity="0.2" d="M71.7809 355.778C63.7529 357.314 52.8984 357.825 50.5355 356.804C48.7395 356.022 47.4898 352.284 46.9974 350.535L46.7615 350.589C46.7615 350.589 48.1767 356.731 50.5355 357.753C52.8943 358.774 63.7529 358.268 71.7809 356.731C74.0942 356.279 74.7563 355.244 74.508 353.929C74.3011 354.788 73.5024 355.443 71.7809 355.778Z" fill="black"/>
</g>
<defs>
<linearGradient id="paint0_linear" x1="212.45" y1="364.451" x2="212.45" y2="62.0465" gradientUnits="userSpaceOnUse">
<stop stop-color="#808080" stop-opacity="0.25"/>
<stop offset="0.54" stop-color="#808080" stop-opacity="0.12"/>
<stop offset="1" stop-color="#808080" stop-opacity="0.1"/>
</linearGradient>
<clipPath id="clip0">
<rect width="454" height="371" fill="white"/>
</clipPath>
</defs>
</svg>
